<svg xmlns="http://www.w3.org/2000/svg" width="289.705" height="453.031" viewBox="0 0 289.705 453.031"><defs><style>.a{fill:#957f6e;}.b{fill:#bdbdbd;}.c{fill:#fff;}.d{fill:#211715;}.e{fill:#7a7473;}.f{fill:#3f88c9;}.g{fill:none;}</style></defs><path class="a" d="M267.268,71.677a98.837,98.837,0,0,0-.191-13.347c-.609-8.563-4.438-18.126-9.947-23.441-2.382-2.3-3.074-3.371-5.667-4.778l-6.222-3.037c-3.83-1.476-7.391-2.185-14.111-2.185a39.184,39.184,0,0,0-25.177,9.842c-7.22,6.912-11.8,19.537-11.222,36.946l0,0c0,12.68-.97,21.84-2.32,27.04a64.75,64.75,0,0,0-1.74,13.1,10.091,10.091,0,0,0,1.43,5.12s9.49,9.632,37.934,9.632,40.506-9.042,40.506-9.042a10.8,10.8,0,0,0,2.73-6.94,30.885,30.885,0,0,0-1.7-9.9c-1.4-4.36-4.11-13.21-4.31-29.01Z"/><path class="b" d="M232.868,161.048c-7.2-12.6-17.826-40.988-19.857-51.732a238.684,238.684,0,0,0-23.342,9.155c-1.187.543-4.43,2.61-5.28,4.188-3.277,4.915-5.728,14.244-7.345,21.222-1.525,6.582-3.962,17.791-4.569,24.749-.484,5.54-.032,8.018,3.007,11.149,2.23,2.239,11.523,9.974,17.917,14.707.16.118.339.253.536.4l-.044.867c-.9,7.263-2.761,24.342-3.081,27.759a1.114,1.114,0,0,0,.99,1.232c11.45.794,24.2-1.232,30.28-4.014,6.65-3.043,9.02-10.615,9.83-15.226l.009-.05c.06.324.121.647.121.647a46.678,46.678,0,0,0,4.9,11.128,20.14,20.14,0,0,0,1.83,2.418,17.246,17.246,0,0,0,6.37,3.949c4.28,1.428,17.1,2.072,24.76.831a1.134,1.134,0,0,0,.99-1.232c-.29-2.465-2.767-18.957-3.517-25.072l-.051-.7c1.373-.919,2.534-1.716,3.245-2.232,1.871-1.357,11.2-9.308,12.862-11.237,4.651-4.52,4.686-10.818,3.965-16.876-.626-5.251-2.756-15.554-4.218-22.394-1.706-7.984-4.043-17.157-6.215-21.448-.761-1.4-3.348-3.195-4.547-3.839a139.723,139.723,0,0,0-22.387-9.448c-1.982,12.617-11.507,39.81-17.18,50.4"/><path class="c" d="M224.535,63.231c.422-.092.843-.194,1.4-.342,7.149-1.95,15.178-6.114,18.777-9.825.766,3.447,1.94,6.866,6.047,11.773a24.631,24.631,0,0,0,8.249,6.749l.7-1.04a4.2,4.2,0,0,1,3.363-.983,3.97,3.97,0,0,1,2.853,1.9,5.623,5.623,0,0,1,.587,2.257,16.81,16.81,0,0,1-1.714,8.913,10.7,10.7,0,0,1-2.763,3.627,7.093,7.093,0,0,1-3.3,1.485l-.564.088c-.271,1.011-.574,1.863-.723,2.316-.976,2.647-6.509,11.918-13.425,15.063a6.15,6.15,0,0,0,.341,1.181c.509,1.259,2.925,3.137,5.443,4.836-.6,3.319-1.637,7.461-2.938,11.961l-.385.253c-3.89,2.56-10.26,3.38-14.35,3.39-4.25.01-10.658-.66-14.989-3.059-1.672-4.952-3-9.4-3.767-12.719,2.669-1.645,5.156-3.443,5.646-4.662a6.035,6.035,0,0,0,.306-1.07,24.354,24.354,0,0,1-8.536-6.777,28.6,28.6,0,0,1-5.449-10.636l-1.074-.165a7.093,7.093,0,0,1-3.295-1.485,10.7,10.7,0,0,1-2.763-3.627,16.81,16.81,0,0,1-1.714-8.913,5.623,5.623,0,0,1,.587-2.257,3.97,3.97,0,0,1,2.853-1.9,4.2,4.2,0,0,1,3.363.983s.465.323,1.07.747c2.526-.93,6.674-2.56,7.932-3.187a70.19,70.19,0,0,0,7.106-4.023,34.2,34.2,0,0,0,3.742-.576C223.7,63.4,224.119,63.322,224.535,63.231Z"/><path class="c" d="M231.748,126.828c-4.245-.031-10.4-.731-14.6-3.059,4.226,12.513,10.628,28.234,15.521,36.924,4.091-7.493,10.324-24.09,14.205-37.512l-.386.258c-3.89,2.56-10.26,3.38-14.35,3.39Z"/><path class="b" d="M232.04,206.1a46.678,46.678,0,0,0,4.9,11.128,20.14,20.14,0,0,0,1.83,2.418,17.246,17.246,0,0,0,6.37,3.949c3.987,1.33,15.383,1.981,23.117,1.06,5.117,30.23-2.222,91.9-2.732,101.57a.987.987,0,0,1-.89.93c-13.08,1.56-50.01,1.5-65.7.05a.988.988,0,0,1-.9-.93c-.52-9.77-7.98-71.08-2.96-101.38,10.525.252,21.5-1.647,27.005-4.166,6.65-3.043,9.02-10.615,9.83-15.226"/><path class="c" d="M256.789,417.96c.4.615.836,1.253,1.321,1.97.048.886-.113,1.576-.523,1.829-1.243.765-1.234,2.112-6.123,1.445-5.2-.709-10.555-4.444-17.507-10.305a.277.277,0,0,0-.106-.058c-.028-6.2.257-11.566,0-18.637-.563-15.243-1.385-34.056-1.382-49.447l0-16.444c8.723,0,17.315-.163,24.007-.514,0,.055.009.084.009.084,2.428,19.3-1.573,38.742-3.973,58.047-.92,7.4-.5,24.163,2.387,28.83A34.782,34.782,0,0,0,256.789,417.96Z"/><path class="c" d="M207.518,417.545c.651-.923,1.225-1.824,1.781-2.785,2.889-4.667,3.159-21.428,2.239-28.83-2.4-19.305-6.4-38.745-3.973-58.047l.009-.1c7.167.343,15.97.522,24.66.53q0,8.22,0,16.443c0,15.391-.819,34.2-1.382,49.447-.276,7.467-.349,12.423-.532,18.917-6.827,5.733-12.109,9.383-17.246,10.083-4.889.667-4.88-.68-6.123-1.445-.569-.351-.657-1.541-.378-2.931C206.91,418.39,207.222,417.965,207.518,417.545Z"/><path class="d" d="M265.265,71.679a112.908,112.908,0,0,0,1.968,20.329c.854,4.311,2.4,8.4,3.377,12.665.9,3.927,1.261,8.158-1.48,11.442-1.638,1.963,1.177,4.807,2.829,2.828a14.081,14.081,0,0,0,3.2-10.829,44.65,44.65,0,0,0-2.1-9.37,80.4,80.4,0,0,1-2.935-13.787,122.273,122.273,0,0,1-.858-13.278c-.037-2.572-4.038-2.579-4,0Z"/><path class="d" d="M193.831,115.93c-1.87-3.333-1.086-7.5-.562-11.118.45-3.1,1.3-6.1,1.838-9.18a141.254,141.254,0,0,0,1.628-23.953c0-2.574-4-2.578-4,0a158.478,158.478,0,0,1-1.066,20.128c-.668,5.169-2.139,10.158-2.691,15.354-.4,3.791-.53,7.35,1.4,10.787,1.26,2.245,4.716.231,3.453-2.018Z"/><path class="d" d="M261.119,71.961a2.13,2.13,0,0,1,3.007.4,4.592,4.592,0,0,1,.437,2.339,14.008,14.008,0,0,1-.195,2.885c-.626,3.427-2.352,7.548-6.164,8.231a2.018,2.018,0,0,0-1.4,2.46,2.045,2.045,0,0,0,2.461,1.4c5.953-1.067,8.8-7.781,9.243-13.177.233-2.8-.016-5.961-2.434-7.769a6.236,6.236,0,0,0-7.786.409,2.016,2.016,0,0,0,0,2.829,2.044,2.044,0,0,0,2.828,0Z"/><path class="d" d="M256.693,84.612a15.72,15.72,0,0,1-.919,4.243c-.063.19-.488,1.3-.215.685q-.2.45-.418.889a36.023,36.023,0,0,1-3.107,4.993c-2.686,3.684-6.338,7.59-10.933,8.669-2.5.587-1.445,4.445,1.063,3.857,5.573-1.308,9.894-5.861,13.172-10.3,2.829-3.83,5.16-8.17,5.357-13.036.1-2.574-3.9-2.57-4,0Z"/><path class="d" d="M204.717,69.132a6.237,6.237,0,0,0-7.786-.409c-2.42,1.8-2.666,4.974-2.434,7.769.448,5.395,3.29,12.11,9.243,13.177a2.057,2.057,0,0,0,2.461-1.4,2.017,2.017,0,0,0-1.4-2.46c-3.813-.683-5.538-4.8-6.164-8.231a13.862,13.862,0,0,1-.2-2.722,5.385,5.385,0,0,1,.372-2.39,2.113,2.113,0,0,1,3.075-.508,2.055,2.055,0,0,0,2.828,0,2.016,2.016,0,0,0,0-2.829Z"/><path class="d" d="M202.513,84.4a32.8,32.8,0,0,0,7,15.7c3.943,4.668,9.164,8.026,15.308,8.689a2.012,2.012,0,0,0,2-2,2.045,2.045,0,0,0-2-2c-5.19-.56-9.518-3.906-12.737-7.827-3.185-3.879-4.857-8.744-5.71-13.63a2.017,2.017,0,0,0-2.46-1.4,2.045,2.045,0,0,0-1.4,2.461Z"/><path class="d" d="M245.772,25.145a40.175,40.175,0,0,0-16.394-2.209,41.3,41.3,0,0,0-17.812,5.317,32.332,32.332,0,0,0-10.386,8.939A40.661,40.661,0,0,0,194.9,50.736a71.417,71.417,0,0,0-2.167,20.941c.079,2.568,4.079,2.579,4,0-.32-10.445.926-21.7,6.685-30.7,5.134-8.02,14.926-12.923,24.234-13.906A37.271,37.271,0,0,1,244.709,29a2.015,2.015,0,0,0,2.46-1.4,2.045,2.045,0,0,0-1.4-2.461Z"/><path class="d" d="M269.268,71.677a74.7,74.7,0,0,0,.032-9.6,62.84,62.84,0,0,0-.848-8.55,39.97,39.97,0,0,0-8.238-18.249,29.2,29.2,0,0,0-7.742-6.89c-2.251-1.252-4.271,2.2-2.018,3.454a17.982,17.982,0,0,1,4.059,3.274,35.909,35.909,0,0,1,3.679,4.021,36.02,36.02,0,0,1,5.193,10.576,44.039,44.039,0,0,1,1.821,10.59,80.915,80.915,0,0,1,.062,11.378c-.21,2.566,3.791,2.552,4,0Z"/><path class="d" d="M214.384,112.786a37.075,37.075,0,0,0,4.476-3.16,9.762,9.762,0,0,0,1.554-1.657,5.289,5.289,0,0,0,.849-2.128,2.135,2.135,0,0,0-.2-1.541,2,2,0,0,0-3.655.477,5.714,5.714,0,0,1-.329,1.125l.2-.478a2.987,2.987,0,0,1-.358.577l.313-.405a10.561,10.561,0,0,1-1.859,1.731l.405-.313a40.727,40.727,0,0,1-3.415,2.318,2,2,0,0,0,2.019,3.454Z"/><path class="d" d="M205.565,327.883c-1.891,15.367.2,30.79,2.34,46.014a169.518,169.518,0,0,1,2.046,17.848,92.478,92.478,0,0,1-.6,15.275c-.159,1.183-.364,2.364-.637,3.526-.109.463-.229.925-.369,1.38-.064.208-.13.415-.2.621-.025.069-.323.785-.165.441a35.279,35.279,0,0,1-5.386,7.617c-1.649,1.956,1.167,4.8,2.829,2.828a50.568,50.568,0,0,0,5.692-7.8,17.6,17.6,0,0,0,1.729-5.3,80.682,80.682,0,0,0,1.17-15.435,128.28,128.28,0,0,0-1.568-17.226c-1.071-7.717-2.223-15.426-2.935-23.186a124.563,124.563,0,0,1,.06-26.6,2.011,2.011,0,0,0-2-2,2.049,2.049,0,0,0-2,2Z"/><path class="d" d="M254.483,327.883c1.907,15.5-.244,31.048-2.4,46.4a156.481,156.481,0,0,0-1.975,17.765,95.709,95.709,0,0,0,.809,15.737,26.422,26.422,0,0,0,1.7,6.87,49.462,49.462,0,0,0,4.624,7.557c1.424,2.129,4.89.129,3.454-2.019a63.659,63.659,0,0,1-4.394-7.042,12.8,12.8,0,0,1-.645-1.9c-.277-1.015-.484-2.049-.659-3.086a83.2,83.2,0,0,1-.912-14.878,134.621,134.621,0,0,1,1.72-16.978c1.064-7.584,2.164-15.169,2.827-22.8a122.817,122.817,0,0,0-.147-25.632,2.063,2.063,0,0,0-2-2,2.012,2.012,0,0,0-2,2Z"/><path class="d" d="M230.234,328.97c0,11.791.016,23.574-.318,35.361-.321,11.345-.848,22.683-1.2,34.027-.189,6.01-.3,12.022-.488,18.031-.081,2.575,3.919,2.572,4,0,.34-10.772.6-21.543,1.013-32.313.434-11.432.859-22.868.973-34.308.069-6.932.024-13.866.023-20.8,0-2.574-4-2.578-4,0Z"/><path class="d" d="M230.467,328.97c0,11.791-.016,23.574.318,35.361.322,11.36,1.036,22.726,1.161,34.09.069,6.262-.207,12.522-.017,18.783.077,2.568,4.078,2.579,4,0-.168-5.528.027-11.053.029-16.582s-.286-11.033-.5-16.546c-.434-11.432-.859-22.868-.973-34.308-.069-6.932-.024-13.866-.023-20.8,0-2.574-4-2.578-4,0Z"/><path class="d" d="M266.326,225.191c1.5,8.943,1.729,18.211,1.735,27.306.006,10.5-.453,21-1.111,31.476-.573,9.126-1.317,18.239-2.134,27.346-.288,3.207-.587,6.413-.872,9.62-.1,1.1-.195,2.2-.282,3.3-.034.432-.067.865-.095,1.3a1.961,1.961,0,0,0-.029.45c.158.793-1.657-1.676.918-.806a2.509,2.509,0,0,0-.741.082c-8.881.936-17.889.981-26.81,1.038-10.277.065-20.57-.051-30.835-.594-1.941-.1-3.881-.224-5.818-.383a4.731,4.731,0,0,0-.67-.056l-.218-.019q-.942-.159.666.951c.042-.1-.032-.323-.026-.434a10.3,10.3,0,0,0-.1-1.322c-.2-2.536-.445-5.069-.68-7.6-.777-8.337-1.532-16.676-2.156-25.026-.779-10.4-1.385-20.821-1.624-31.25a235.612,235.612,0,0,1,.805-29.42c.2-1.942.436-3.8.751-5.715a2.062,2.062,0,0,0-1.4-2.461,2.016,2.016,0,0,0-2.46,1.4,174.534,174.534,0,0,0-1.8,28.852c.037,10.851.561,21.7,1.29,32.522.616,9.143,1.4,18.273,2.244,27.4.287,3.1.584,6.194.856,9.293.089,1.015.177,2.03.247,3.046a7.181,7.181,0,0,0,.179,1.614c.535,1.722,2.062,2.06,3.639,2.194,9.679.825,19.434.958,29.142,1.015,10.137.06,20.309,0,30.428-.676,1.7-.114,3.395-.243,5.083-.445a3.141,3.141,0,0,0,3.069-2.951c.034-.362.043-.729.069-1.092.178-2.489.418-4.974.644-7.46.762-8.353,1.507-16.708,2.122-25.074.786-10.692,1.394-21.4,1.617-32.12a233.2,233.2,0,0,0-.913-29.893c-.234-2.161-.521-4.318-.881-6.463a2.016,2.016,0,0,0-2.46-1.4,2.048,2.048,0,0,0-1.4,2.461Z"/><path class="d" d="M216.135,125.5c4.8,2.588,10.605,3.351,16,3.333,5.156-.017,10.938-.843,15.359-3.663,2.164-1.381.16-4.844-2.019-3.454-3.847,2.454-8.859,3.1-13.34,3.117-4.677.016-9.807-.538-13.981-2.787-2.266-1.221-4.288,2.231-2.019,3.454Z"/><path class="d" d="M265.373,198.126c.55,4.459,1.206,8.905,1.846,13.351q.483,3.361.97,6.724.2,1.406.4,2.811.067.474.134.949c.026.188.176,1.318.091.654.009.075.015.544.074.583l.478-.7c-.149.025-.3.048-.448.07a4.9,4.9,0,0,0-.553.075c-1.468.185-2.949.287-4.426.356-2.8.129-5.608.114-8.408-.017-4.889-.23-9.957-.5-14.012-3.558-2.3-1.735-3.713-4.432-4.927-6.986a31.151,31.151,0,0,1-2.626-6.869c-.516-2.52-4.372-1.453-3.857,1.064a33.663,33.663,0,0,0,2.605,6.911,28.185,28.185,0,0,0,4.494,7.356c4.072,4.5,9.991,5.479,15.71,5.92a91.574,91.574,0,0,0,9.209.242c1.535-.037,3.07-.113,4.6-.248,1.4-.124,3.221-.076,4.478-.746,2.223-1.184,1.607-3.531,1.325-5.535q-.444-3.162-.906-6.32c-.776-5.37-1.6-10.829-2.252-16.09a2.065,2.065,0,0,0-2-2,2.012,2.012,0,0,0-2,2Z"/><path class="d" d="M230.939,161.58a43.833,43.833,0,0,1,1.468,15.435c-.294,5.89-.763,11.76-1.342,17.629q-.544,5.519-1.151,11.031a2.013,2.013,0,0,0,2,2,2.047,2.047,0,0,0,2-2c.722-6.649,1.438-13.3,1.958-19.971.2-2.616.356-5.237.492-7.857a63.075,63.075,0,0,0,.158-7.479,43.247,43.247,0,0,0-1.726-9.851c-.762-2.45-4.625-1.405-3.857,1.063Z"/><path class="d" d="M249.174,110.6a42.407,42.407,0,0,1,7.091,5.147,30.454,30.454,0,0,1,2.674,2.667,9.312,9.312,0,0,1,.854,1.106c.119.188.236.377.338.574.2.379-.044-.183.078.2l.919-2.259c-1.75,1.228-3.485,2.478-5.228,3.716a41.823,41.823,0,0,1-3.943,2.726,2.013,2.013,0,0,0-.405,3.141,62.731,62.731,0,0,1,5.207,5l-.514-1.946c-.077.234-.166.463-.259.691.189-.464-.209.448-.289.616-.4.841-.827,1.669-1.266,2.491-1.177,2.208-2.435,4.374-3.731,6.514a132.061,132.061,0,0,1-10.109,14.728,2.06,2.06,0,0,0,0,2.828,2.015,2.015,0,0,0,2.829,0A139.561,139.561,0,0,0,254.154,143c2.144-3.541,4.652-7.3,5.948-11.268a2,2,0,0,0-.515-1.946,62.569,62.569,0,0,0-5.207-5l-.4,3.141a42.012,42.012,0,0,0,3.943-2.726c1.743-1.239,3.478-2.488,5.228-3.716a2.059,2.059,0,0,0,.919-2.258c-.764-2.421-2.873-4.4-4.7-6.065a47.341,47.341,0,0,0-8.177-6.022c-2.234-1.288-4.251,2.167-2.019,3.454Z"/><path class="d" d="M211.454,107.5a64.621,64.621,0,0,0-5.974,4.073,35.927,35.927,0,0,0-5.71,5.015,4.642,4.642,0,0,0-1.511,3.091c.068,1.733,1.882,2.66,3.126,3.557,2.19,1.581,4.79,3.228,6.763,4.767v-2.829c-1.271,1.246-2.675,2.34-4.021,3.5-1.373,1.182-2.01,2.284-1.5,4.134a21.257,21.257,0,0,0,2.821,5.579,127.244,127.244,0,0,0,11.27,14.643c2,2.3,4.051,4.574,6.237,6.7,1.846,1.8,4.677-1.029,2.829-2.829a132.428,132.428,0,0,1-11.83-13.489c-1.805-2.312-3.55-4.684-5.125-7.16a33.472,33.472,0,0,1-1.763-3.064,3.561,3.561,0,0,1-.658-1.947l-.273,1.01a9.6,9.6,0,0,1,2.21-1.919c.9-.753,1.8-1.511,2.634-2.332a2.009,2.009,0,0,0,0-2.829c-1.345-1.048-2.75-2.012-4.151-2.984q-1.281-.888-2.555-1.787a15.089,15.089,0,0,1-2.5-1.882l.514.883c.273.7-.328.659.118.241-.088.082.283-.334.358-.417.371-.418.767-.813,1.171-1.2,1-.947,2.054-1.829,3.137-2.674a62.1,62.1,0,0,1,6.4-4.4c2.209-1.316.2-4.776-2.019-3.454Z"/><path class="d" d="M211.066,109.754c1.213,6.419,3.454,12.7,5.639,18.834,2.784,7.818,5.847,15.552,9.269,23.113,1.59,3.514,3.259,7,5.167,10.357,1.273,2.237,4.73.224,3.454-2.019a164.59,164.59,0,0,1-9.18-19.756c-2.974-7.35-5.732-14.807-8.07-22.385a84.693,84.693,0,0,1-2.422-9.207c-.478-2.527-4.333-1.457-3.857,1.063Z"/><path class="d" d="M248.184,108.868c.038-.286-.073.475-.094.607-.046.3-.1.588-.147.882-.133.755-.281,1.508-.439,2.259-.32,1.525-.681,3.041-1.065,4.55-.922,3.624-1.976,7.215-3.1,10.782-2.359,7.505-5,14.937-8,22.211-1.282,3.113-2.64,6.208-4.225,9.18-1.211,2.271,2.241,4.294,3.454,2.019a151.982,151.982,0,0,0,8.164-19.252c2.754-7.509,5.272-15.131,7.3-22.871a85.438,85.438,0,0,0,2.148-10.367,2.01,2.01,0,0,0-2-2,2.052,2.052,0,0,0-2,2Z"/><path class="d" d="M191.891,195.756c-.617,4.994-1.17,10-1.722,15-.46,4.167-1.088,8.363-1.339,12.549s5.013,3.606,7.807,3.617a86.22,86.22,0,0,0,11.08-.675,72.824,72.824,0,0,0,9.794-1.824,24.81,24.81,0,0,0,7.561-3.08c5.084-3.457,7.711-9.419,8.766-15.3a2.055,2.055,0,0,0-1.4-2.46,2.017,2.017,0,0,0-2.46,1.4c-.8,4.439-2.422,9-5.867,12.079a15.82,15.82,0,0,1-6.074,3.053,59.475,59.475,0,0,1-8.2,1.834,81.767,81.767,0,0,1-10.1.934c-1.622.053-3.245.062-4.866.018a8.947,8.947,0,0,0-2.2-.091l-.437-.026q.563,1.245.584.637c.06-.081.037-.382.047-.483.379-3.846.808-7.688,1.231-11.529.575-5.218,1.15-10.436,1.794-15.645a2.01,2.01,0,0,0-2-2,2.049,2.049,0,0,0-2,2Z"/><path class="d" d="M225.523,169.885a4.109,4.109,0,0,1,.478.509l-.313-.405a3.356,3.356,0,0,1,.387.656l-.2-.478a3.288,3.288,0,0,1,.219.79l-.072-.531a3.51,3.51,0,0,1,0,.881l.071-.531a3.85,3.85,0,0,1-.254.93l.2-.478a3.184,3.184,0,0,1-.372.658l.312-.4a2.806,2.806,0,0,1-.486.482l.4-.313a3.44,3.44,0,0,1-.692.4l.477-.2a3.953,3.953,0,0,1-.962.263l.531-.072a4.092,4.092,0,0,1-1.049,0l.531.071a3.454,3.454,0,0,1-.8-.213l.478.2a2.7,2.7,0,0,1-.583-.336l.405.312a3.4,3.4,0,0,1-.539-.554l.312.4a3.388,3.388,0,0,1-.392-.665l.2.478a3.168,3.168,0,0,1-.21-.765l.071.532a3.224,3.224,0,0,1,0-.773l-.072.531a3.573,3.573,0,0,1,.235-.872l-.2.478a3.842,3.842,0,0,1,.462-.791l-.312.405a3.281,3.281,0,0,1,.529-.544l-.4.312a3.425,3.425,0,0,1,.708-.416l-.477.2a3.941,3.941,0,0,1,.954-.265l-.531.071a3.735,3.735,0,0,1,.933,0l-.532-.072a3.174,3.174,0,0,1,.765.207l-.478-.2a2.784,2.784,0,0,1,.571.337l-.405-.313c.035.028.07.057.1.087a2.13,2.13,0,0,0,1.414.586,2.032,2.032,0,0,0,1.414-.586,2.012,2.012,0,0,0,.586-1.414,1.979,1.979,0,0,0-.586-1.415,4.981,4.981,0,0,0-3.286-1.245,5.536,5.536,0,0,0-2.971.845,5.35,5.35,0,0,0-2.268,5.769,5.231,5.231,0,0,0,2.071,2.86,4.366,4.366,0,0,0,1.3.588,5.639,5.639,0,0,0,1.491.205,5.221,5.221,0,0,0,4.709-2.632,5.475,5.475,0,0,0,.635-2.9,5.592,5.592,0,0,0-.561-2.041,4.905,4.905,0,0,0-1.123-1.449,2.106,2.106,0,0,0-1.414-.585,2.039,2.039,0,0,0-1.414.585,2,2,0,0,0,0,2.829Z"/><path class="d" d="M226.879,54.8c-5.929,7.611-15.217,11.808-24.093,14.945-2.41.852-1.372,4.718,1.064,3.857,9.477-3.35,19.522-7.841,25.858-15.973a2.067,2.067,0,0,0,0-2.829,2.015,2.015,0,0,0-2.829,0Z"/><path class="d" d="M219.46,66.078a49.011,49.011,0,0,0,14.664-4.023c4.252-1.856,8.584-4.186,11.909-7.477,1.832-1.814-1-4.643-2.829-2.829-2.98,2.951-6.91,4.988-10.706,6.679a43.167,43.167,0,0,1-13.038,3.65,2.056,2.056,0,0,0-2,2,2.014,2.014,0,0,0,2,2Z"/><path class="d" d="M260.714,70.168a24.139,24.139,0,0,1-9.321-7.7,23.7,23.7,0,0,1-4.631-9.4c-.6-2.5-4.457-1.442-3.858,1.064a28.268,28.268,0,0,0,5.451,10.9c2.781,3.562,6.134,6.8,10.34,8.6a2.068,2.068,0,0,0,2.737-.717,2.015,2.015,0,0,0-.718-2.737Z"/><path class="d" d="M242.1,105.741a5.84,5.84,0,0,0,.842,2.191,10.422,10.422,0,0,0,1.519,1.716,37.256,37.256,0,0,0,4.348,3.308,2.012,2.012,0,0,0,2.736-.718,2.048,2.048,0,0,0-.717-2.736c-.842-.569-1.671-1.155-2.477-1.774l.405.313a14.248,14.248,0,0,1-2.532-2.342l.312.4a3.462,3.462,0,0,1-.42-.675l.2.477a6.293,6.293,0,0,1-.36-1.228,2.02,2.02,0,0,0-.919-1.2,2,2,0,0,0-2.938,2.259Z"/><path class="d" d="M186.62,128.616c1.282,6.624,1.815,13.4,2.83,20.071a47.25,47.25,0,0,0,2.071,9.545,38.405,38.405,0,0,1,2.778,11.043c.159,2.556,4.16,2.575,4,0a40.73,40.73,0,0,0-2.82-11.837,46.615,46.615,0,0,1-2.114-9.432c-1.044-6.794-1.581-13.7-2.888-20.453-.489-2.525-4.345-1.456-3.857,1.063Z"/><path class="d" d="M270.518,127.553c-1.307,6.75-1.844,13.659-2.888,20.453a72.315,72.315,0,0,1-2.067,9.828A58.5,58.5,0,0,0,262.9,171c-.157,2.571,3.843,2.561,4,0a55.255,55.255,0,0,1,2.616-12.417,71.951,71.951,0,0,0,2.029-9.893c1.015-6.668,1.548-13.447,2.83-20.071.487-2.515-3.367-3.592-3.857-1.063Z"/><path class="e" d="M190.163,447.3a7.436,7.436,0,0,1-1.337-3.366,11.539,11.539,0,0,1,1.769-7.092,52.92,52.92,0,0,1,5.627-7.809c3.346-3.924,5.666-6.876,8.424-10.04,1.565-1.794,2.77-3.116,4.279-4.87-2.163,2.1-3.214,6.875-1.971,7.64s1.234,2.112,6.123,1.445c5.2-.709,10.555-4.444,17.507-10.305.249-.21.692.087.695.434.033,4.116.378,5.895.357,10.443a10.476,10.476,0,0,1-.79,3.521c-1.014,2.741-4.019,4.061-6.431,5.711-6.274,4.294-11.079,11.4-17.653,15.216-3.8,2.206-7.366,3.5-11.617,2.393A8.846,8.846,0,0,1,190.163,447.3Z"/><path class="e" d="M274.378,447.3a7.436,7.436,0,0,0,1.337-3.366,11.545,11.545,0,0,0-1.768-7.092,53,53,0,0,0-5.628-7.809c-3.346-3.924-5.666-6.876-8.424-10.04-1.564-1.794-2.77-3.116-4.279-4.87,2.163,2.1,3.214,6.875,1.971,7.64s-1.234,2.112-6.123,1.445c-5.2-.709-10.555-4.444-17.507-10.305-.249-.21-.692.087-.695.434-.033,4.116-.378,5.895-.357,10.443a10.453,10.453,0,0,0,.791,3.521c1.013,2.741,4.018,4.061,6.43,5.711,6.274,4.294,11.079,11.4,17.653,15.216,3.8,2.206,7.366,3.5,11.617,2.393A8.843,8.843,0,0,0,274.378,447.3Z"/><path class="d" d="M191.89,446.286c-1.842-2.716-1.082-5.75.431-8.438a53.338,53.338,0,0,1,5.95-8.153c4.01-4.735,8.014-9.464,12.068-14.162,1.663-1.927-1.009-4.694-2.829-2.828a11.253,11.253,0,0,0-3.086,7.486,3.753,3.753,0,0,0,1.411,3.211c.186.136.291.215.036.007.1.082.2.169.294.255a9.712,9.712,0,0,0,.961.78c2.073,1.4,5.032,1,7.335.546a23.816,23.816,0,0,0,7.568-3.185A81.573,81.573,0,0,0,232,414.313l-.882.514.213-.069h-1.064l.227.078-.882-.515.18.182-.514-.882a11.954,11.954,0,0,1,.084,2.614c.038.829.09,1.657.136,2.486a27.623,27.623,0,0,1,.069,5.868,6.484,6.484,0,0,1-2.707,4.454c-1.476,1.073-3.093,1.931-4.554,3.031-6.442,4.854-11.142,11.854-18.5,15.475-3.667,1.805-9.114,2.452-11.913-1.263a2.063,2.063,0,0,0-2.736-.717,2.013,2.013,0,0,0-.718,2.736,12.034,12.034,0,0,0,10.5,4.693c3.968-.242,7.765-2.135,10.951-4.421,6.1-4.374,10.5-10.713,16.886-14.711A20.078,20.078,0,0,0,231,430.718a10.391,10.391,0,0,0,2.463-5.288c.619-3.514-.072-7.3-.16-10.848-.026-1.024.077-2.1-.681-2.907a2.419,2.419,0,0,0-2.806-.6,13.166,13.166,0,0,0-2.5,1.959c-.853.7-1.712,1.39-2.588,2.059a34.7,34.7,0,0,1-8.882,5.352,14.774,14.774,0,0,1-4.936.941,7.666,7.666,0,0,1-.963-.042c.046.008-.659-.213-.443-.119.272.119-.521-.335-.206-.116.232.162-.192-.174-.252-.227-.131-.114-.26-.228-.4-.338-.154-.126-.911-.81-.47-.307-.153-.174.367.379.287.367s-.035-.179-.035-.176a6.7,6.7,0,0,1,.036-.873,7.419,7.419,0,0,1,1.874-4.018l-2.829-2.828c-4.56,5.285-9.143,10.543-13.568,15.945-4.266,5.208-10.087,12.9-5.506,19.655C189.873,450.424,193.34,448.425,191.89,446.286Z"/><path class="d" d="M276.105,448.305c4.58-6.755-1.237-14.45-5.506-19.655-4.428-5.4-9.008-10.66-13.568-15.945l-2.829,2.828a7.358,7.358,0,0,1,1.781,3.583c.1.449,0,1,.124,1.422-.091-.311.095.047-.03.062.335-.04-.7-1.03.5-.568-.115-.045-.67.494-.735.548-.217.18-.418.379-.637.557.092-.075.2-.052-.112.048-.07.023-.346.146.033,0a2.175,2.175,0,0,1-.361.109,11.7,11.7,0,0,1-4.05-.254,24.877,24.877,0,0,1-8.4-4.136c-1.691-1.167-3.311-2.429-4.9-3.727-1.486-1.214-3.49-3.5-5.4-1.594-1.254,1.256-.785,3.846-.875,5.5-.092,1.7-.2,3.4-.225,5.112a14.46,14.46,0,0,0,1.086,6.2,10.013,10.013,0,0,0,3.52,4c1.42,1.032,2.971,1.864,4.387,2.9a42.2,42.2,0,0,1,4.085,3.53c2.8,2.668,5.418,5.533,8.4,8,3.33,2.752,7.335,5.323,11.679,5.993a12.331,12.331,0,0,0,12.032-4.515,2.011,2.011,0,0,0-.718-2.736,2.049,2.049,0,0,0-2.736.717c-2.406,3.194-7.053,3.181-10.455,1.9-3.809-1.429-7.025-4.071-9.932-6.845-2.888-2.756-5.588-5.725-8.7-8.238a50.27,50.27,0,0,0-4.69-3.27c-1.41-.9-2.818-1.863-3.4-3.5-.785-2.193-.584-4.491-.471-6.78.047-.938.108-1.875.156-2.813a14.62,14.62,0,0,1,.109-3.126l-.514.882.18-.182-.882.515.227-.078h-1.064l.213.069-.882-.514c4.885,4.108,10.227,8.751,16.536,10.442,2.4.643,5.589,1.169,7.9-.044a9.844,9.844,0,0,0,1.645-1.26c.079-.066-.292.228.031-.007a3.356,3.356,0,0,0,.713-.662,3.418,3.418,0,0,0,.65-1.5c.56-2.933-.959-6.5-2.983-8.578-1.819-1.865-4.493.9-2.829,2.828,4.054,4.7,8.058,9.427,12.068,14.162a53.088,53.088,0,0,1,5.95,8.153c1.511,2.689,2.274,5.721.431,8.438C271.2,448.423,274.667,450.426,276.105,448.305Z"/><path class="c" d="M230.844,196.112c.092-.061.186-.122.28-.182a12.6,12.6,0,0,1,1.347-.738,14.787,14.787,0,0,0-5.882-2.865c-1.114-.229-2.253-.287-3.375-.459a24.564,24.564,0,0,1-5.989-1.843s-.667-.353-1.539-.819c-2.035,3.147-5.534,7.96-8.037,11.139.628.487,1.088.847,1.088.847a38.315,38.315,0,0,1,3.81,3.1c1.426,1.279,2.851,2.548,4.277,3.827a17.914,17.914,0,0,0,2.055,1.617,2.482,2.482,0,0,1,.12-.571,14.847,14.847,0,0,1,3.555-5.637A43.991,43.991,0,0,1,230.844,196.112Z"/><path class="d" d="M216.216,191.752a33.845,33.845,0,0,0,4.239,1.561,31.966,31.966,0,0,0,4.6.781,13.177,13.177,0,0,1,6.6,2.982,2.061,2.061,0,0,0,2.828,0,2.014,2.014,0,0,0,0-2.829,17.554,17.554,0,0,0-7.667-3.907c-1.487-.271-3-.328-4.471-.673a24.827,24.827,0,0,1-4.112-1.369,2.066,2.066,0,0,0-2.736.718,2.014,2.014,0,0,0,.718,2.736Z"/><path class="d" d="M207.728,202.919c.6.411.878.624,1.376,1.031.52.425,1.027.865,1.53,1.31,1.056.932,2.1,1.876,3.15,2.814,1.006.9,1.994,1.816,3.062,2.641a29.406,29.406,0,0,0,2.811,1.855,2,2,0,1,0,2.018-3.454c-.459-.278-.921-.552-1.374-.841-.207-.132-.412-.267-.615-.407-.081-.057-.654-.477-.356-.248-1.073-.824-2.052-1.779-3.059-2.68a68.517,68.517,0,0,0-6.524-5.475,2.012,2.012,0,0,0-2.737.717,2.052,2.052,0,0,0,.718,2.737Z"/><path class="d" d="M212.684,107.318c-6.726,2.278-13.372,4.771-19.891,7.588a33.6,33.6,0,0,0-7.165,3.742,15.426,15.426,0,0,0-4.685,6.108c-2.671,5.659-4.239,11.819-5.663,17.888-1.354,5.769-2.609,11.569-3.618,17.408-.491,2.843-.935,5.7-1.187,8.578-.234,2.658-.382,5.51.587,8.05,1.576,4.126,5.633,6.955,8.905,9.688,4.241,3.543,8.6,6.926,12.992,10.273,3.15,2.4,6.587,5.4,10.083,7.7a3.4,3.4,0,0,0,2.69.828c.829-.228,1.433-1.092,1.962-1.721,1.5-1.788,2.91-3.66,4.3-5.533,1.534-2.065,3.038-4.154,4.477-6.287a27.129,27.129,0,0,0,2.69-4.579,1.926,1.926,0,0,0-.514-1.946c-3.364-2.84-7.02-5.369-10.595-7.935q-3.867-2.775-7.6-5.737a38.777,38.777,0,0,1-4.312-3.676c-1.759-1.886-4.583.947-2.828,2.829a38.9,38.9,0,0,0,4.312,3.676q3.753,2.991,7.642,5.81c3.543,2.567,7.206,5.037,10.552,7.861l-.515-1.946c.284-.673-.055.061-.137.213-.143.265-.3.525-.452.783-.408.679-.84,1.343-1.278,2-1.128,1.7-2.307,3.364-3.5,5.015a65.343,65.343,0,0,1-6.15,7.828l1.946-.515c-.32-.076.352.289.036.012a5.076,5.076,0,0,0-.561-.341c-.566-.363-1.111-.762-1.653-1.16-1.368-1-2.705-2.051-4.04-3.1-2.665-2.089-5.368-4.125-8.045-6.2q-5.316-4.116-10.437-8.479c-2.133-1.815-4.957-3.776-6.106-6.426a11.847,11.847,0,0,1-.571-5.345c.11-2.067.365-4.124.676-6.17.71-4.677,1.648-9.32,2.65-13.943.935-4.312,1.906-8.623,3.078-12.878,1.193-4.333,2.5-8.82,4.792-12.718,2.234-3.794,7.024-5.282,10.879-6.9,5.684-2.392,11.477-4.516,17.317-6.494,2.425-.821,1.384-4.686-1.063-3.857Z"/><path class="c" d="M245.559,189.773l-8.934,3.69a38.746,38.746,0,0,0-5.5,2.465,43.458,43.458,0,0,0-8.567,7.6,14.907,14.907,0,0,0-3.56,5.636c-.5,1.53.325,3.5,1.877,3.2-.74,1.175-.865,2.255-.168,3.122.591.735,2.822,1,4.305-.094l.343-.254-.257.235c-.571.519-.506,1.948-.506,1.948.961,1.8,3.426,1.952,5.884.052,0,0,.62-.478,1.372-1.079l-.075.371a2.517,2.517,0,0,0,3.151,3.073,8.842,8.842,0,0,0,3.8-2c3.429-2.808,4.37-3.74,7.306-6.536.782-.744,1.623-2.14,2.391-2.9,1.212-1.2,2.711-2.921,3.768-4.085l-2.5-7.869C248.041,193.89,246.485,191.434,245.559,189.773Z"/><path class="d" d="M220.967,210.531c-.527-.32.357-1.875.536-2.219a14.627,14.627,0,0,1,2.194-3.079,54.694,54.694,0,0,1,5.842-5.711,23.664,23.664,0,0,1,6.462-3.67c2.876-1.138,5.725-2.349,8.583-3.532a2.067,2.067,0,0,0,1.4-2.46,2.013,2.013,0,0,0-2.461-1.4c-3.344,1.384-6.7,2.736-10.045,4.12a28.029,28.029,0,0,0-8.25,5.4,38.116,38.116,0,0,0-6.591,7.3c-1.666,2.626-2.973,6.709.314,8.707,2.2,1.34,4.218-2.117,2.019-3.454Z"/><path class="d" d="M229.844,216.128a4.781,4.781,0,0,0,1.006,4.233,4.717,4.717,0,0,0,3.458,1.446c3.056-.037,5.54-2.381,7.72-4.227a69.455,69.455,0,0,0,5.613-5.165c1.015-1.074,1.833-2.306,2.859-3.378,1.062-1.11,2.072-2.268,3.1-3.407,1.723-1.905-1.1-4.742-2.829-2.828-1.656,1.831-3.472,3.582-4.968,5.544a35.817,35.817,0,0,1-4.565,4.618,30.445,30.445,0,0,1-5.208,4.221,6.243,6.243,0,0,1-1.366.551l-.275.068c.158-.009.164-.009.02,0-.107.018-.47-.029-.194.017-.429-.072-.39-.072-.539-.287.165.237-.008-.151.023-.34a2.061,2.061,0,0,0-1.4-2.46,2.016,2.016,0,0,0-2.461,1.4Z"/><path class="d" d="M233.679,204.626c-3.036,2.722-5.97,5.564-8.948,8.35-.384.36-.8.7-1.153,1.093a4.408,4.408,0,0,0-.973,2.711,3.152,3.152,0,0,0,.892,2.427,5.109,5.109,0,0,0,5.181,1.3,12.328,12.328,0,0,0,4.351-2.62c3.011-2.391,5.625-5.235,8.516-7.767a2.017,2.017,0,0,0,0-2.828,2.038,2.038,0,0,0-2.828,0c-2.377,2.081-4.534,4.409-6.922,6.471-.625.54-1.28,1.049-1.929,1.56-.22.173-.438.35-.662.519-.044.033-.086.069-.13.1.457-.325-.3.178-.32.191a4.305,4.305,0,0,1-.915.451,3.36,3.36,0,0,1-.665.161c.316-.034-.3-.021-.3-.021.28.012,0-.008-.134-.037-.233-.048.234.069-.118-.042q-.258-.169-.1-.049c.1.085.08.057-.074-.082-.226-.348.108.205-.131-.209l.273,1.009a1.736,1.736,0,0,1,0-.26c.013-.116.131-.687.01-.247.185-.676-.007.013-.089-.027.007,0,.067-.065.075-.069a4.526,4.526,0,0,0,.82-.766q1.585-1.482,3.171-2.968c1.971-1.845,3.919-3.722,5.93-5.525a2,2,0,0,0-2.829-2.828Z"/><path class="d" d="M229.893,200.944c-2.415,1.955-4.7,4.094-6.915,6.266a29.643,29.643,0,0,0-3.661,3.873c-1.356,1.936-1.572,4.827.57,6.3a5.792,5.792,0,0,0,6.134-.272,2.054,2.054,0,0,0,.718-2.737A2.018,2.018,0,0,0,224,213.66c-.065.045-.705.4-.343.247-.2.086-.418.106-.616.184q-.221.042.089,0c-.117.013-.233.022-.35.026s-.814-.082-.294.018c-.147-.028-.29-.072-.436-.1-.212-.075-.178-.057.1.053a1.634,1.634,0,0,1-.206-.121.876.876,0,0,1,.368.348l-.1-.162q.108.3.006-.033.036.351.023-.013c-.041.216-.035.2.018-.044.076-.205.089-.259.039-.16.007-.02.23-.452.325-.588-.136.193.246-.269.29-.317.121-.132.243-.264.366-.394.636-.679,1.287-1.343,1.947-2a99.411,99.411,0,0,1,7.489-6.831,2.014,2.014,0,0,0,0-2.829,2.049,2.049,0,0,0-2.829,0Z"/><path class="d" d="M265.152,170a40.717,40.717,0,0,1-4.137,3.481q-3.453,2.748-6.98,5.4c-3.554,2.689-7.191,5.294-10.633,8.127a1.931,1.931,0,0,0-.514,1.946c1.449,3.685,4,7.07,6.218,10.321,1.261,1.851,2.55,3.686,3.931,5.45a6.346,6.346,0,0,0,1.52,1.645,2.626,2.626,0,0,0,2.638-.253,96.391,96.391,0,0,0,10.428-6.491,90.321,90.321,0,0,0,8.437-6.34,111.941,111.941,0,0,0,9.074-8.2c4.654-4.9,5.024-11.622,4.26-18-.7-5.806-1.92-11.558-3.1-17.279-1.353-6.551-2.729-13.113-4.631-19.531-.488-1.645-1.009-3.283-1.618-4.887a15.939,15.939,0,0,0-1.653-3.608c-2.023-2.831-5.467-4.424-8.493-5.914a131.1,131.1,0,0,0-20.005-8.038c-2.47-.744-3.526,3.115-1.063,3.857a119.519,119.519,0,0,1,13.254,4.95c2.626,1.146,5.222,2.365,7.769,3.679,1.781.92,4,1.975,5.209,3.656a19.031,19.031,0,0,1,2.053,5.139c.806,2.483,1.5,5,2.138,7.533,1.277,5.023,2.337,10.1,3.378,15.175.946,4.616,1.887,9.244,2.578,13.906.631,4.253,1.105,9.048-.625,13.113-1.313,3.082-4.159,5.347-6.61,7.521-2.563,2.273-5.16,4.521-7.835,6.662-.127.1-.775.6-.318.256q-.284.212-.57.417c-.571.407-1.15.8-1.73,1.2q-2.445,1.661-4.931,3.259c-1.657,1.071-3.322,2.132-5.012,3.15-.627.378-1.257.755-1.9,1.1-.2.109-.409.205-.608.316-.461.258.408-.094-.034,0l1.946.514a23.3,23.3,0,0,1-2.176-2.765c-1.145-1.582-2.249-3.193-3.33-4.819-1.045-1.571-2.069-3.157-3.048-4.771-.387-.638-.769-1.279-1.129-1.933-.141-.255-.275-.512-.41-.77-.056-.108-.1-.22-.16-.327-.182-.351.151.389.017.048l-.515,1.945c3.4-2.8,7-5.352,10.5-8.012q3.512-2.666,6.971-5.4a41.8,41.8,0,0,0,4.281-3.6c1.782-1.858-1.042-4.691-2.828-2.828Z"/><path class="d" d="M230.447,84.51a16.41,16.41,0,0,1,.6,2.335l-.072-.531a1.135,1.135,0,0,1,.008.267l.072-.532a.736.736,0,0,1-.035.14l.2-.478a.557.557,0,0,1-.052.092l.313-.405a.553.553,0,0,1-.077.076l.405-.312a1.157,1.157,0,0,1-.176.088l.478-.2a1.867,1.867,0,0,1-.423.116l.532-.071a1.766,1.766,0,0,1-.411,0l.532.071c-.289-.04-.577-.089-.867-.121a2.222,2.222,0,0,0-1.414.585,2,2,0,0,0,0,2.829l.4.313a2,2,0,0,0,1.01.273l.057.007-.531-.072a9.33,9.33,0,0,0,.984.13,3.072,3.072,0,0,0,1.139-.178,2.858,2.858,0,0,0,1.138-.647,2.451,2.451,0,0,0,.614-1.027,3.034,3.034,0,0,0,.014-1.546,19.864,19.864,0,0,0-.592-2.26,2.1,2.1,0,0,0-.919-1.195,2.038,2.038,0,0,0-1.541-.2,2,2,0,0,0-1.4,2.46Z"/><path class="d" d="M239.36,79.957a5.572,5.572,0,0,0,7.621,0,2,2,0,1,0-2.828-2.828,3.081,3.081,0,0,1-.292.255l.405-.313a3.3,3.3,0,0,1-.7.4l.478-.2a3.7,3.7,0,0,1-.845.229l.532-.071a4.26,4.26,0,0,1-1.128,0l.531.071a3.688,3.688,0,0,1-.844-.229l.478.2a3.282,3.282,0,0,1-.7-.4l.405.313a3.057,3.057,0,0,1-.29-.255,2.068,2.068,0,0,0-1.414-.586,2,2,0,0,0-1.415,3.414Z"/><path class="d" d="M220.819,77.129a3.64,3.64,0,0,1-.286.255l.405-.313a3.205,3.205,0,0,1-.685.4l.478-.2a3.623,3.623,0,0,1-.836.229l.531-.071a4.3,4.3,0,0,1-1.128,0l.532.071a3.814,3.814,0,0,1-.853-.229l.478.2a3.377,3.377,0,0,1-.742-.426l.405.312a3.027,3.027,0,0,1-.263-.23,2.066,2.066,0,0,0-1.414-.586,2,2,0,0,0-1.414,3.414,5.572,5.572,0,0,0,7.621,0,2,2,0,0,0-2.829-2.828Z"/><path class="d" d="M228.058,97.81a15.613,15.613,0,0,1,1.577-.426c.165-.034.331-.061.5-.092.4-.075-.45.041-.008,0,.349-.033.7-.063,1.047-.067s.675.01,1.012.033c.128.009.255.019.382.031l.255.028q-.48-.067-.15-.019a12.642,12.642,0,0,1,2.006.514,2.012,2.012,0,0,0,2.46-1.4,2.049,2.049,0,0,0-1.4-2.46,13.763,13.763,0,0,0-8.744,0,2,2,0,0,0,1.064,3.857Z"/><path class="c" d="M99.9,97.867c-.56-.25-8.64-4.91-10.14-8.61a9.374,9.374,0,0,1-.43-1.455c6.791-3.956,12.05-12.723,13.04-15.368a27.59,27.59,0,0,0,1.2-4.331,3.67,3.67,0,0,0,4.536-.42,11.725,11.725,0,0,0,3.03-3.976,18.436,18.436,0,0,0,1.879-9.77,6.149,6.149,0,0,0-.644-2.474,4.349,4.349,0,0,0-3.128-2.08,4.608,4.608,0,0,0-3.686,1.079s.407-26-31.889-26-30.523,26-30.523,26a4.609,4.609,0,0,0-3.686-1.079,4.347,4.347,0,0,0-3.128,2.08,6.149,6.149,0,0,0-.644,2.474,18.436,18.436,0,0,0,1.879,9.77A11.722,11.722,0,0,0,40.6,67.683c1.114.888,2.536,1.871,4.439,1.108A31.224,31.224,0,0,0,51.328,81.48a27.118,27.118,0,0,0,7.2,6.157,9.117,9.117,0,0,1-.47,1.62c-1.5,3.7-8.31,7.71-8.87,7.95,0,0,1.218,14.519,24.477,14.519S99.9,97.867,99.9,97.867Z"/><path class="b" d="M123.25,238.659a31.959,31.959,0,0,1-7.041,1.364c-7.958.827-19.957.873-24.832-.534s-7.712-4.782-10.194-8.8c-2.66-4.306-4.226-10.163-4.9-13.956l-.4-2.284-.251.658c-.29.761-1.49,4.668-2.08,6.408-1.23,3.622-2.09,6.684-3.79,9.64a18.343,18.343,0,0,1-4.75,5.419c-4.1,3.071-10.52,4.184-15.13,4.193a199.014,199.014,0,0,1-21.36-.9,10.293,10.293,0,0,1-2.2-.494c-2.05-.9-1.645-3.071-1.5-5.267.57-7.958,2.527-27.6,3.587-35.928l.058-.683c-.262-.2-.5-.379-.708-.535C19.955,191.177,8.612,181.736,5.89,179c-3.709-3.822-4.261-6.846-3.67-13.608.741-8.494,3.716-22.176,5.577-30.209,1.973-8.518,4.965-19.9,8.965-25.9,1.037-1.926,5-4.449,6.444-5.111A295.989,295.989,0,0,1,53.389,92.427q.228.966.454,1.96c.42,1.79.84,3.62,1.27,5.47,2.41,10.33,5.629,20.923,8.889,30.573,3,8.89,6.791,14.517,10.261,23.137l.35.869c2.331-7.924,6.946-17.7,9.612-24.562,3.98-10.25,6.822-21.64,9.332-32.81.15-.65.29-1.3.44-1.94.161-.71.322-1.417.482-2.113a164.654,164.654,0,0,1,30.135,12.2c1.476.782,4.658,2.962,5.592,4.666,2.667,5.223,5.527,16.39,7.612,26.112,1.786,8.327,4.389,20.871,5.148,27.265.877,7.378.82,15.048-4.917,20.564-2.05,2.352-13.555,12.055-15.863,13.712-.532.382-1.27.892-2.147,1.484l.074.419c1.186,6.9,3.686,25.957,4.8,34.126.145,1.063.426,3.472-.537,4.454A3.3,3.3,0,0,1,123.25,238.659Z"/><path class="b" d="M75.939,214.757l-.055-.312-.251.658c-.29.761-1.49,4.668-2.08,6.408-1.23,3.622-2.09,6.684-3.79,9.64a18.343,18.343,0,0,1-4.75,5.419c-4.1,3.071-10.52,4.184-15.13,4.193-8.225.008-12.608-.172-18.62-.667.425,6.072.864,12.8,1.314,19.841,1.47,18.31,3.56,62.72,4.44,88.39.77,22.389,1.63,38.209,2.393,60.6,3.108.33,26.675.271,31.934.143.5-14.4,2.463-49.188,2.7-54.889.666-16.143,1.346-84.668,2.012-99.877.528,14.453,1.112,86.6,1.642,102.064.187,5.463,1.719,38.9,2.121,52.7,5.257.128,28.806.187,31.92-.143.77-22.39,1.63-38.21,2.39-60.6.88-25.67,2.97-70.08,4.45-88.39.451-7.271.9-14.2,1.358-20.431-1.241.222-2.559.394-3.726.517-7.958.827-19.957.873-24.832-.534s-7.712-4.782-10.194-8.8c-2.66-4.306-4.226-10.163-4.9-13.956Z"/><path class="c" d="M76.191,99.721c.015.033.03.066.046.1a2.765,2.765,0,0,0,.177.311c-1.865,0-3.262,0-5,0a2.731,2.731,0,0,0,.183-.311,1.181,1.181,0,0,0,.162-.8,1.041,1.041,0,0,0-.679-.606,30.052,30.052,0,0,1-13.517-9.875,22.532,22.532,0,0,0-3.888,5.143c.062.232.115.467.169.7.42,1.79.84,3.62,1.27,5.47,2.41,10.33,5.629,20.923,8.889,30.573,3,8.89,6.791,14.517,10.261,23.137l.35.868c2.331-7.922,6.946-17.7,9.612-24.561,3.98-10.25,6.822-21.64,9.332-32.81.15-.65.29-1.3.44-1.94q.058-.262.119-.525a22.849,22.849,0,0,0-4.255-6.058,33.113,33.113,0,0,1-13.113,9.875,1.018,1.018,0,0,0-.669.606A1.1,1.1,0,0,0,76.191,99.721Z"/><path class="f" d="M78.953,142.574c1.1-2.688,2.238-5.34,3.272-7.811-1.54-10.3-3.469-21.786-3.459-22.356a11.219,11.219,0,0,1,.72-3.26c.442-1.357.709-2.54,1-3.705-.552-.609-1.08-1.227-1.543-1.839-1.157-1.53-2.128-2.844-2.529-3.473l-5,0c-.416.633-1.413,1.944-2.6,3.469-.284.365-.588.731-.9,1.1.379,1.982.622,3.13,1.021,4.837.06.28.13.55.2.83a7.687,7.687,0,0,1,.3,1.84c0,.35-2.315,11.556-3.535,21.556,0,0-.075.478-.19,1.206,2.662,6.484,5.72,11.536,8.562,18.6l.418.639C75.769,150.556,77.33,146.526,78.953,142.574Z"/><path class="c" d="M105.48,414.935c-.076-.512-.12-1.011-.153-1.358-.15-1.5-.29-2.987-.42-4.455-5.726.065-13.7.059-19.331.018.1,1.838.161,3.706.34,5.9,3.219,1.974,6.528,3.925,10.219,4.681,3.646.746,7.655.08,10.387-2.434a4.142,4.142,0,0,1-.485-.514A4.7,4.7,0,0,1,105.48,414.935Z"/><path class="c" d="M45.491,417.232a3.275,3.275,0,0,0,.426-.455,8.355,8.355,0,0,0,.71-3.2c.15-1.5.289-2.978.417-4.447,5.944.059,13.936.048,19.343,0-.11,1.86-.18,3.761-.36,5.991-3.176,1.946-6.446,3.855-10.085,4.6A11.838,11.838,0,0,1,45.491,417.232Z"/><path class="e" d="M58.031,4.975a8.91,8.91,0,0,0-1.378.968l-5.7,3.9c-6.362,2.9-10.85,9.854-12.762,17.016-1.838,6.888-1.976,16.666.266,22.8a4.5,4.5,0,0,1,1.007-.274,4.609,4.609,0,0,1,3.686,1.079l1.383,1.1c1.248-2.934,2.449-5.45,3.486-7.5a37.46,37.46,0,0,1,3.859-5.922,5.521,5.521,0,0,1,1.592-1.586c1.953-1.127,4.634-.217,7.017-.375,2.646-.175,4.839-1.676,7.279-2.531a15.444,15.444,0,0,1,10.718.294,7.525,7.525,0,0,0,3.192-.068c.594-.095,1.181-.236,1.775-.337a16.981,16.981,0,0,1,6.364-.244c4.851.978,7.833,3.753,10.273,7.317a31.7,31.7,0,0,1,3.843,7.471,23.6,23.6,0,0,1,.718,2.836q.056.312.094.629a4.339,4.339,0,0,1,4.5-2.167,4.456,4.456,0,0,1,.6.132l.017-.064c1.89-7.34,1.22-16.2-.9-21.61-1.54-3.94-3.9-8.48-8.68-11.1L95.9,12.862c-1.969-4-6.084-7.423-11.493-9.355C79.146,1.63,64.555,1.2,58.031,4.975Z"/><path class="d" d="M83.577,409.137c.106,1.97.18,3.942.34,5.91a2.13,2.13,0,0,0,.586,1.414,2,2,0,0,0,3.414-1.414c-.16-1.968-.234-3.94-.34-5.91a2,2,0,0,0-4,0Z"/><path class="d" d="M102.907,409.117c.15,1.7.3,3.393.482,5.086a14.274,14.274,0,0,0,.362,2.261A4.716,4.716,0,0,0,105.1,418.7a2,2,0,1,0,2.828-2.829c-.093-.089-.242-.309-.358-.36.2.279.251.342.147.191-.029-.047-.057-.095-.082-.145-.154-.265.185.53.029.041-.043-.134-.079-.27-.111-.407-.069-.291-.1-.587-.161-.88.132.657.022.151.005-.007-.015-.13-.028-.261-.041-.392q-.235-2.4-.452-4.8a2,2,0,0,0-4,0Z"/><path class="d" d="M68.027,415.127c.159-2,.243-3.993.35-5.99a2.012,2.012,0,0,0-2-2,2.044,2.044,0,0,0-2,2c-.107,2-.191,4-.35,5.99a2,2,0,0,0,2,2,2.051,2.051,0,0,0,2-2Z"/><path class="d" d="M46.911,418.641a4.57,4.57,0,0,0,1.291-2.177,14.426,14.426,0,0,0,.368-2.311c.176-1.673.328-3.35.477-5.026a2.008,2.008,0,0,0-2-2,2.052,2.052,0,0,0-2,2c-.14,1.581-.294,3.161-.448,4.741-.025.252-.062.5-.083.756.058-.678.017-.133-.01.022s-.052.294-.084.439-.065.279-.1.416c-.019.065-.04.129-.061.193-.073.195-.04.123.1-.215a1.351,1.351,0,0,0-.163.288c.211-.265.242-.314.092-.149-.065.066-.132.131-.2.194a2.019,2.019,0,0,0,0,2.829,2.04,2.04,0,0,0,2.828,0Z"/><path class="e" d="M100.408,444.8a20.1,20.1,0,0,0,3.725,2.907,24.431,24.431,0,0,0,15.211,3.121,14.4,14.4,0,0,0,6.464-2.275,8.039,8.039,0,0,0,3.527-5.7c.276-3.268-1.708-6.364-4.032-8.678-5.965-5.936-12.288-11.764-17.557-18.261-2.641,3.635-7.372,4.677-11.611,3.809-3.9-.8-7.372-2.931-10.762-5.015-3.243-1.994-3.732,7.367-3.809,9.4-.121,3.214-.648,7.459,1.9,9.836a25.718,25.718,0,0,0,8.154,4.435C95.533,439.575,97.552,442.1,100.408,444.8Z"/><path class="e" d="M51.668,444.8a20.037,20.037,0,0,1-3.725,2.907,24.428,24.428,0,0,1-15.21,3.121,14.4,14.4,0,0,1-6.464-2.275,8.036,8.036,0,0,1-3.527-5.7c-.276-3.268,1.708-6.364,4.032-8.678,5.965-5.936,12.288-11.764,17.556-18.261,2.642,3.635,7.372,4.677,11.612,3.809,3.9-.8,7.372-2.931,10.762-5.015,3.243-1.994,3.732,7.367,3.808,9.4.122,3.214.649,7.459-1.9,9.836a25.708,25.708,0,0,1-8.154,4.435C56.544,439.575,54.525,442.1,51.668,444.8Z"/><path class="d" d="M98.994,446.215a24.731,24.731,0,0,0,13.011,6.418c4.748.772,10.287.562,14.454-2.111a9.835,9.835,0,0,0,4.174-12c-1.8-4.547-5.944-7.758-9.343-11.094A160.337,160.337,0,0,1,109.161,414.5c-.9-1.1-2.447-.511-3.142.405-3.3,4.352-9.564,3.4-13.851,1.358-1.336-.636-2.623-1.369-3.892-2.127a10.691,10.691,0,0,0-3.126-1.629c-1.828-.372-3.281.905-4,2.47-1.281,2.8-1.453,6.095-1.588,9.13a24.425,24.425,0,0,0,.32,7.475c.7,2.583,2.462,4.253,4.658,5.641a49.881,49.881,0,0,0,7.586,3.449c2.756,1.166,4.75,3.523,6.866,5.542,1.863,1.777,4.7-1.047,2.829-2.828a45.261,45.261,0,0,0-5.71-5.072c-2.03-1.369-4.411-1.87-6.591-2.917-1.8-.863-4.355-1.96-5.364-3.794-1.049-1.906-.739-4.423-.639-6.5.135-2.8.122-5.578,1.135-8.2a2.606,2.606,0,0,1,.3-.568c.111-.179-.08-.014.026-.035a4.306,4.306,0,0,1-.5.134c-.311.029-.129.056-.276-.087a9.383,9.383,0,0,0,1.673,1.016,36.662,36.662,0,0,0,8.02,3.853c5.66,1.745,11.893.574,15.576-4.29l-3.141.4c2.812,3.449,5.867,6.683,9.007,9.833s6.587,6.093,9.5,9.445c2.35,2.7,3.671,6.515.873,9.4-2.834,2.926-7.659,3.258-11.481,2.91a20.909,20.909,0,0,1-12.408-5.534C99.946,441.628,97.111,444.45,98.994,446.215Z"/><path class="d" d="M50.254,443.387A20.988,20.988,0,0,1,39.429,448.7c-3.839.695-8.658.538-11.972-1.757a6.16,6.16,0,0,1-2.715-4.092,7.608,7.608,0,0,1,1.583-5.06,30.375,30.375,0,0,1,4.155-4.466c1.65-1.62,3.306-3.231,4.947-4.859a143.936,143.936,0,0,0,10.318-11.14l-3.142-.4c3.216,4.245,8.372,5.72,13.516,4.8a26.534,26.534,0,0,0,8.164-3.235c1.158-.653,2.261-1.42,3.43-2.049.376-.2-.22-.084.135-.052-.179-.016-.321.041-.52.017-.661-.081.1.023-.2-.1-.029-.011-.117-.157,0,.031a4.348,4.348,0,0,1,.571,1.411,19.2,19.2,0,0,1,.506,2.5c.147,1.036.25,2.438.3,3.633a23.849,23.849,0,0,1-.085,6.306c-.512,2.235-2.289,3.286-4.182,4.341-2.352,1.312-5,1.9-7.329,3.206-2.562,1.433-4.553,3.649-6.653,5.653-1.866,1.78.965,4.606,2.828,2.828s3.584-3.759,5.844-5.027a23.738,23.738,0,0,1,3.216-1.284,32.531,32.531,0,0,0,3.78-1.74c2.136-1.154,4.494-2.584,5.605-4.838,1.152-2.338,1.177-4.99,1.064-7.539-.142-3.163-.185-6.5-1.17-9.539-.5-1.534-1.339-3.239-3.03-3.7a3.5,3.5,0,0,0-2.537.347c-1.363.7-2.631,1.615-3.978,2.356-4.637,2.553-11.932,4.791-15.819-.342-.694-.916-2.239-1.51-3.141-.405A146.257,146.257,0,0,1,32.27,425.967c-1.861,1.841-3.74,3.664-5.6,5.5a23.5,23.5,0,0,0-4.518,5.5c-2.284,4.289-1.7,9.3,2.095,12.526,3.707,3.145,9.118,3.872,13.815,3.4a25.356,25.356,0,0,0,15.024-6.684C54.964,444.451,52.132,441.627,50.254,443.387Z"/><path class="g" d="M90.124,108.5a56.772,56.772,0,0,1-14.283,2.014,61.911,61.911,0,0,1-16.228-2.484"/><path class="d" d="M29.257,240.067c1.419,20.114,2.719,40.233,3.715,60.373,1.072,21.69,1.811,43.389,2.694,65.086.589,14.467,1.249,28.93,1.744,43.4a2.059,2.059,0,0,0,2,2c3.531.356,7.162.208,10.705.228q7.725.043,15.449-.013c1.927-.014,3.854-.026,5.78-.072a2.04,2.04,0,0,0,2-2c.413-11.815,1.076-23.622,1.7-35.427.416-7.938.922-15.876,1.15-23.823.281-9.786.428-19.577.591-29.366q.3-18.2.593-36.393c.156-9.119.283-18.242.59-27.358q.033-.992.073-1.984c.106-2.574-3.894-2.569-4,0-.342,8.36-.44,16.733-.589,25.1q-.321,18.07-.593,36.142c-.169,10.375-.328,20.75-.591,31.123-.187,7.368-.6,14.722-.989,22.082-.641,12.172-1.308,24.345-1.8,36.525q-.067,1.689-.128,3.38l2-2c-9.081.215-18.187.176-27.268.023-1.551-.026-3.122-.01-4.666-.166l2,2c-.831-24.305-1.889-48.607-2.851-72.908-.815-20.619-1.761-41.238-3.011-61.836-.69-11.375-1.489-22.747-2.291-34.115-.18-2.554-4.182-2.573-4,0Z"/><path class="d" d="M117.927,239.557q-2.183,30.236-3.736,60.511c-1.083,21.814-1.824,43.636-2.708,65.458-.585,14.467-1.247,28.93-1.746,43.4l2-2c-3.532.355-7.161.208-10.7.228q-7.719.043-15.439-.013c-1.926-.014-3.852-.026-5.777-.072l2,2c-.355-12.116-.914-24.227-1.434-36.336-.325-7.585-.693-15.167-.851-22.757-.212-10.16-.336-20.322-.47-30.483q-.238-18.122-.472-36.242c-.123-8.911-.22-17.825-.467-26.733q-.024-.909-.055-1.817c-.087-2.567-4.088-2.579-4,0,.275,8.1.346,16.209.462,24.312q.26,18.015.474,36.03c.138,10.691.27,21.383.472,32.074.132,7.061.413,14.11.716,21.166.535,12.461,1.1,24.922,1.517,37.388q.059,1.7.108,3.4a2.038,2.038,0,0,0,2,2c9.076.215,18.177.176,27.253.023,1.551-.026,3.122-.011,4.667-.166a2.055,2.055,0,0,0,2-2c.838-24.305,1.886-48.607,2.847-72.908.82-20.72,1.77-41.441,3.035-62.14q1.048-17.164,2.308-34.321c.185-2.569-3.816-2.557-4,0Z"/><path class="d" d="M69.851,114.122c2.88,0,5.76-.063,8.64-.064a2,2,0,0,0,0-4c-2.88,0-5.76.063-8.64.064a2,2,0,0,0,0,4Z"/><path class="d" d="M66.187,106.319q.436,2.2.958,4.372c.09.372.163.75.258,1.12.013.05.1.783.051.194-.037-.432-.008.018-.045.211q-.437,2.3-.856,4.6c-1.031,5.626-1.962,11.271-2.662,16.947a2.011,2.011,0,0,0,2,2,2.049,2.049,0,0,0,2-2c.694-5.627,1.655-11.221,2.687-16.8.248-1.34.532-2.677.747-4.023a7.8,7.8,0,0,0-.271-3.108c-.359-1.523-.7-3.046-1.01-4.58-.5-2.523-4.358-1.455-3.857,1.063Z"/><path class="d" d="M76.252,98.13l-5.075.005a2,2,0,0,0,0,4l5.075-.005a2,2,0,1,0,0-4Z"/><path class="d" d="M84.153,134.232c-.836-5.581-1.727-11.152-2.612-16.725-.256-1.607-.5-3.216-.749-4.825-.074-.48-.051.395-.013-.107.021-.28.008-.562.056-.847.25-1.509.883-2.974,1.259-4.459.632-2.5-3.224-3.561-3.857-1.063-.547,2.159-1.66,4.421-1.418,6.688.179,1.685.5,3.365.763,5.038.917,5.786,1.846,11.57,2.714,17.363a2.014,2.014,0,0,0,2.46,1.4,2.05,2.05,0,0,0,1.4-2.46Z"/><path class="d" d="M91.373,97.1v.011l.273-1.01c-2.417,4.434-4.683,8.984-8.127,12.733h2.828c-1.464-1.893-3.3-3.481-4.872-5.28-.845-.965-1.6-2-2.356-3.035-.262-.36-.526-.721-.775-1.09-.1-.144-.187-.291-.282-.436-.147-.222.032-.224.017.031l-.273,1.009q-.463.357.11.06l.478-.2c.317-.134.633-.269.945-.414q.944-.439,1.852-.95a31.007,31.007,0,0,0,3.547-2.347,41.667,41.667,0,0,0,6.537-6.223H88.447A21.758,21.758,0,0,1,92.236,95.3c1.194,2.282,4.648.262,3.454-2.019a25.349,25.349,0,0,0-4.415-6.155,2.015,2.015,0,0,0-2.828,0,36.871,36.871,0,0,1-6.739,6.339,28.845,28.845,0,0,1-3.765,2.256c-1.389.689-3.322,1.059-3.792,2.768a3.921,3.921,0,0,0,.937,3.241c.845,1.211,1.735,2.4,2.649,3.558,1.78,2.256,4.026,4.1,5.782,6.372a2.01,2.01,0,0,0,2.828,0,42.153,42.153,0,0,0,5.141-7c.691-1.161,1.343-2.346,1.987-3.534.36-.663.716-1.328,1.075-1.991a4.531,4.531,0,0,0,.823-2.033c0-2.574-4-2.578-4,0Z"/><path class="d" d="M55.57,94.4a21.332,21.332,0,0,1,3.406-4.443H56.148a32.949,32.949,0,0,0,6.517,6.251,29.9,29.9,0,0,0,3.594,2.264q.926.494,1.885.916.633.279,1.276.536c.16.065.32.128.482.189q.572.289.129-.08l-.273-1.009c-.012-.2.19-.284.01-.031-.081.115-.154.237-.234.353-.272.4-.565.786-.856,1.173-.777,1.034-1.564,2.062-2.419,3.035-1.575,1.794-3.368,3.408-4.852,5.28h2.828a53.57,53.57,0,0,1-7.378-10.639c-1.274-2.237-4.731-.224-3.454,2.019a57.882,57.882,0,0,0,8,11.449,2.008,2.008,0,0,0,2.828,0c1.781-2.247,3.973-4.136,5.773-6.372.961-1.192,1.905-2.411,2.792-3.659.746-1.049,1.347-2.36.685-3.618-.768-1.456-2.579-1.719-3.956-2.368a29.2,29.2,0,0,1-3.973-2.275,29.584,29.584,0,0,1-6.58-6.242,2.017,2.017,0,0,0-2.828,0,25.546,25.546,0,0,0-4.032,5.252C50.805,94.6,54.261,96.615,55.57,94.4Z"/><path class="g" d="M90.124,108.5a56.772,56.772,0,0,1-14.283,2.014,61.911,61.911,0,0,1-16.228-2.484"/><path class="d" d="M26.41,198.171c-.822,6.486-1.474,13-2.116,19.5q-.512,5.184-.976,10.374a60.762,60.762,0,0,0-.618,8.718,4.826,4.826,0,0,0,2.847,4.429,17.726,17.726,0,0,0,5.45.88c3.609.3,7.222.518,10.842.609,7.98.2,17.218.68,24.039-4.28,7.421-5.4,8.713-14.707,11.684-22.768.891-2.419-2.973-3.462-3.857-1.063-1.006,2.728-1.8,5.55-2.716,8.311-1.231,3.72-2.517,7.483-5.275,10.379-5.437,5.706-13.9,5.571-21.187,5.472-3.519-.047-7.035-.18-10.546-.429-1.751-.124-3.517-.224-5.26-.428-1.059-.124-1.987-.149-2.032-1.424a67.325,67.325,0,0,1,.6-8.112q.423-4.814.9-9.622c.671-6.855,1.353-13.715,2.219-20.548a2.01,2.01,0,0,0-2-2,2.049,2.049,0,0,0-2,2Z"/><path class="d" d="M118.185,199.962c1.4,8.2,2.419,16.474,3.53,24.717q.423,3.143.845,6.284a20.027,20.027,0,0,1,.488,5.011c-.079.746.029.611-.617.863a18.3,18.3,0,0,1-3.76.864,70.737,70.737,0,0,1-7.221.7,102.487,102.487,0,0,1-15.175-.108,20.5,20.5,0,0,1-5.484-1.1,13.871,13.871,0,0,1-5.569-4.209c-3.361-4.006-5.247-9.017-6.438-14.049a158.754,158.754,0,0,1-2.692-17.785c-.806-6.783-1.91-13.628-2.213-20.454A91.5,91.5,0,0,1,75.3,160.788a2.057,2.057,0,0,0-1.4-2.46,2.016,2.016,0,0,0-2.46,1.4,98.579,98.579,0,0,0-1.632,18.85c.119,6.57,1.182,13.113,1.936,19.633.771,6.66,1.481,13.381,2.782,19.963a40.5,40.5,0,0,0,6.135,15.376c3.006,4.314,7,7.458,12.287,8.326a79.9,79.9,0,0,0,15.652.654c2.657-.091,5.318-.249,7.962-.543a25.547,25.547,0,0,0,7.917-1.69c4.164-1.933,2.242-8.1,1.767-11.632-1.333-9.924-2.522-19.891-4.208-29.764a2.017,2.017,0,0,0-2.46-1.4,2.046,2.046,0,0,0-1.4,2.461Z"/><path class="d" d="M75.264,160.628A54.19,54.19,0,0,1,78.4,149.435c1.513-4.1,3.226-8.123,4.925-12.149a194.858,194.858,0,0,0,9.26-27.5c1.468-5.73,2.725-11.507,4.063-17.267.582-2.505-3.273-3.574-3.857-1.063-2.383,10.254-4.618,20.539-7.886,30.56-2.754,8.443-6.575,16.446-9.748,24.727a59.054,59.054,0,0,0-3.747,12.825,2.069,2.069,0,0,0,1.4,2.46,2.013,2.013,0,0,0,2.46-1.4Z"/><path class="d" d="M76.192,153.035c-3.024-7.455-7.17-14.417-9.869-22.006-2.912-8.188-5.406-16.568-7.61-24.972-1.242-4.734-2.3-9.509-3.421-14.272-.588-2.5-4.446-1.445-3.857,1.063,2,8.519,4.033,17,6.56,25.38,2.422,8.03,4.957,16.005,8.6,23.576,1.962,4.077,4.036,8.1,5.738,12.294a2.063,2.063,0,0,0,2.46,1.4,2.013,2.013,0,0,0,1.4-2.46Z"/><path class="d" d="M52.349,90.592a36.008,36.008,0,0,0-9.237,8.313c-1.048,1.331-3.031,3.522-2.526,5.361.337,1.228,1.591,1.753,2.6,2.311l3.739,2.063-.405-3.142a63.375,63.375,0,0,0-5.536,5.3c-1.8,2.079-.609,4.118.309,6.3a127.7,127.7,0,0,0,6.183,12.616,233.058,233.058,0,0,0,15.666,23.839,2.061,2.061,0,0,0,2.737.718,2.016,2.016,0,0,0,.717-2.737,244,244,0,0,1-14.549-21.87c-2.183-3.781-4.212-7.654-6.013-11.633-.424-.936-.837-1.877-1.232-2.827-.2-.485-.395-.973-.592-1.459-.064-.166-.131-.33-.2-.494q-.453.743.133.034c.861-.673,1.593-1.6,2.391-2.356.926-.879,1.87-1.738,2.815-2.595a2.016,2.016,0,0,0-.4-3.141c-1.743-.962-3.59-1.836-5.254-2.926l.717.717-.17-.252.273,1.009c-.021.479.1-.029.208-.178.155-.213.274-.459.419-.681.286-.44.588-.871.911-1.284a31.994,31.994,0,0,1,2.678-2.975,31.5,31.5,0,0,1,5.638-4.57c2.188-1.348.181-4.809-2.019-3.454Z"/><path class="d" d="M93.413,94.046a31.5,31.5,0,0,1,5.638,4.57,33.054,33.054,0,0,1,2.563,2.832c.33.415.641.846.934,1.288.149.226.3.453.433.686.093.156.309.853.285.312l.273-1.009-.169.252.717-.717c-1.665,1.09-3.511,1.964-5.254,2.926a2.016,2.016,0,0,0-.405,3.141c.946.857,1.89,1.716,2.816,2.595a17.138,17.138,0,0,0,2.39,2.356q.578.787.217-.227l-.354.782q-.269.588-.538,1.176-.637,1.383-1.29,2.758-2.809,5.921-5.949,11.678a146.033,146.033,0,0,1-14.227,21.677,2.062,2.062,0,0,0,0,2.829,2.016,2.016,0,0,0,2.829,0c9.361-11.59,16.579-24.764,22.717-38.295a5.473,5.473,0,0,0,.757-2.732,4.358,4.358,0,0,0-1.5-2.645c-1.616-1.659-3.323-3.226-5.039-4.781l-.405,3.142,3.531-1.948c1.011-.558,2.253-1.037,2.711-2.187.757-1.9-1.331-4.211-2.426-5.6a36.023,36.023,0,0,0-9.236-8.313c-2.2-1.354-4.21,2.105-2.019,3.454Z"/><path class="d" d="M84.172,164.292a4.412,4.412,0,0,1,.521.555l-.313-.4a3.594,3.594,0,0,1,.422.715l-.2-.478a3.571,3.571,0,0,1,.239.862l-.072-.532a3.863,3.863,0,0,1,0,.961l.071-.531a4.2,4.2,0,0,1-.277,1.014l.2-.477a3.474,3.474,0,0,1-.406.717l.312-.405a3.074,3.074,0,0,1-.53.527l.405-.313a3.738,3.738,0,0,1-.755.437l.478-.2a4.345,4.345,0,0,1-1.05.286l.532-.071a4.478,4.478,0,0,1-1.145,0l.532.072a3.822,3.822,0,0,1-.872-.233l.478.2a2.963,2.963,0,0,1-.636-.367l.405.313a3.693,3.693,0,0,1-.587-.6l.312.405a3.65,3.65,0,0,1-.427-.726l.2.478a3.49,3.49,0,0,1-.229-.833l.071.531a3.6,3.6,0,0,1,0-.843l-.072.531a3.872,3.872,0,0,1,.256-.95l-.2.478a4.159,4.159,0,0,1,.5-.863l-.312.405a3.644,3.644,0,0,1,.577-.594l-.4.313a3.724,3.724,0,0,1,.773-.454l-.478.2a4.27,4.27,0,0,1,1.041-.289L83,164.2a4.128,4.128,0,0,1,1.018-.006l-.532-.071a3.443,3.443,0,0,1,.834.225l-.478-.2a3,3,0,0,1,.622.368l-.4-.313c.038.03.076.062.113.094a2.126,2.126,0,0,0,1.414.586A2.032,2.032,0,0,0,87,164.292a2.01,2.01,0,0,0,.586-1.414A1.979,1.979,0,0,0,87,161.464a5.237,5.237,0,0,0-3.455-1.305,5.874,5.874,0,0,0-3.149.9,5.649,5.649,0,0,0-2.389,6.087,5.5,5.5,0,0,0,2.175,3.011,5.323,5.323,0,0,0,2.954.84,5.518,5.518,0,0,0,4.98-2.781,5.8,5.8,0,0,0,.667-3.071,5.885,5.885,0,0,0-.587-2.134,5.194,5.194,0,0,0-1.2-1.543,2.1,2.1,0,0,0-1.414-.586,2,2,0,0,0-1.414,3.414Z"/><path class="d" d="M97.623,11.853C91.5-.218,75.294-1.331,63.582.97a18.215,18.215,0,0,0-8.343,3.558C53.265,6.186,56.107,9,58.067,7.357a14.663,14.663,0,0,1,5.851-2.379,41.358,41.358,0,0,1,8.162-.866c4.93-.091,10.052.2,14.5,2.509a17.027,17.027,0,0,1,7.586,7.251c1.165,2.3,4.617.274,3.454-2.019Z"/><path class="d" d="M101.733,66.474a15.76,15.76,0,0,1-.862,4.156c-.137.426-.289.847-.428,1.273-.035.109-.211.485.019-.03-.059.132-.117.264-.18.394a36.67,36.67,0,0,1-2.771,4.676c-2.721,3.95-6.17,7.745-10.551,9.848a2.019,2.019,0,0,0-.717,2.737,2.043,2.043,0,0,0,2.736.717c4.987-2.394,8.895-6.8,11.986-11.283,2.563-3.721,4.583-7.886,4.768-12.488.1-2.574-3.9-2.569-4,0Z"/><path class="d" d="M106.972,51.876a2.513,2.513,0,0,1,3.673.6,5.879,5.879,0,0,1,.433,2.634,15.547,15.547,0,0,1-.225,3.13,16.463,16.463,0,0,1-2.2,5.822c-.756,1.2-2.022,2.932-3.552,2.524-2.49-.664-3.553,3.193-1.064,3.857,3.318.885,5.914-1.26,7.723-3.839a19.6,19.6,0,0,0,3.179-8.825c.357-2.92.364-6.64-2.005-8.765a6.661,6.661,0,0,0-8.787.037,2.015,2.015,0,0,0,0,2.829,2.043,2.043,0,0,0,2.828,0Z"/><path class="d" d="M44.56,49.047a6.666,6.666,0,0,0-8.788-.037C33.345,51.188,33.414,55.024,33.8,58a19.294,19.294,0,0,0,3.333,8.854c1.867,2.56,4.657,4.752,7.989,4.018,2.513-.554,1.449-4.411-1.064-3.857-1.514.333-3.1-1.6-3.832-2.694A16.2,16.2,0,0,1,37.882,58.4a15.46,15.46,0,0,1-.26-3.082,6.187,6.187,0,0,1,.437-2.847,2.512,2.512,0,0,1,3.673-.6,2.055,2.055,0,0,0,2.828,0,2.016,2.016,0,0,0,0-2.829Z"/><path class="d" d="M49.94,8.116c-7.285,3.422-11.919,11.146-13.813,18.722A47.783,47.783,0,0,0,34.793,38.87,34.541,34.541,0,0,0,36.6,50.388c.883,2.4,4.751,1.359,3.857-1.063-2.4-6.522-2.153-14.4-.556-21.078,1.623-6.791,5.534-13.612,12.059-16.677,2.328-1.093.3-4.543-2.019-3.454Z"/><path class="d" d="M99.269,18.468c4.575,2.585,7.272,7.515,8.591,12.469a36.585,36.585,0,0,1,.07,17.982c-.625,2.5,3.232,3.563,3.857,1.064a40.67,40.67,0,0,0-.163-20.451c-1.629-5.815-4.968-11.484-10.336-14.518-2.244-1.268-4.262,2.186-2.019,3.454Z"/><path class="d" d="M79.012,32.017a17.214,17.214,0,0,0-12.545,0c-1.853.736-3.688,1.879-5.695,2.144-1.925.255-3.864-.324-5.8-.1-3.866.452-6,4.36-7.809,7.416A78.612,78.612,0,0,0,42.7,50.8a2.068,2.068,0,0,0,.717,2.737,2.014,2.014,0,0,0,2.736-.718,88.309,88.309,0,0,1,4.072-8.637,37.008,37.008,0,0,1,2.792-4.269c1.006-1.325,1.435-1.945,3.2-1.928a29.345,29.345,0,0,0,5.623.027,23.6,23.6,0,0,0,5.234-1.945,13.866,13.866,0,0,1,10.878-.2,2.012,2.012,0,0,0,2.46-1.4,2.048,2.048,0,0,0-1.4-2.46Z"/><path class="d" d="M75.288,29.085a10.356,10.356,0,0,1,1.431.013,1.058,1.058,0,0,0,.288.028c-.267-.039-.324-.046-.171-.023.049.007.1.015.145.024.245.042.487.093.727.155.222.057.442.123.659.2a1.8,1.8,0,0,1,.441.163c-.1-.093-.258-.118-.035-.012a11.6,11.6,0,0,1,1.446.8c.08.053.16.108.239.163.021.015.39.286.129.09s.052.047.1.091c.079.068.157.138.232.209.145.137.283.279.414.428a1.678,1.678,0,0,0,.185.221,1.148,1.148,0,1,0-.108-.134,9.407,9.407,0,0,1,.576.972c.079.158.144.322.223.48.11.219-.167-.421-.036-.083.046.118.094.236.14.354a2.048,2.048,0,0,0,2.46,1.4,2.021,2.021,0,0,0,1.4-2.46,12.084,12.084,0,0,0-1.306-2.679,9.655,9.655,0,0,0-2.507-2.421,11.5,11.5,0,0,0-7.071-1.976,2,2,0,0,0,0,4Z"/><path class="d" d="M89.279,35.225a13.95,13.95,0,0,1,8.469,5.542c2.385,3.185,4.574,7.112,5.03,11.127a2.061,2.061,0,0,0,2,2,2.012,2.012,0,0,0,2-2,27.892,27.892,0,0,0-5.732-13.355,17.958,17.958,0,0,0-10.7-7.171,2.048,2.048,0,0,0-2.46,1.4,2.02,2.02,0,0,0,1.4,2.46Z"/><path class="d" d="M42.442,66.175c1.867,10.579,8.242,21.179,18.829,24.859,2.436.847,3.483-3.016,1.063-3.857-9.27-3.222-14.426-12.95-16.035-22.066a2.018,2.018,0,0,0-2.46-1.4,2.046,2.046,0,0,0-1.4,2.461Z"/><path class="d" d="M32.991,166.485a123.27,123.27,0,0,0-1.57-13.826q-.969-6.522-1.817-13.062-1.686-12.972-2.956-26a2.056,2.056,0,0,0-2-2,2.015,2.015,0,0,0-2,2q1.257,13.022,2.956,26,.861,6.626,1.828,13.236a123.029,123.029,0,0,1,1.559,13.652c.091,2.567,4.092,2.579,4,0Z"/><path class="d" d="M117.444,169.521a126.588,126.588,0,0,1,1.6-14.12q1.057-7.155,1.983-14.33,1.781-13.707,3.123-27.469a2.014,2.014,0,0,0-2-2,2.043,2.043,0,0,0-2,2q-1.327,13.76-3.123,27.469-.906,6.975-1.939,13.931a129.463,129.463,0,0,0-1.645,14.519c-.091,2.575,3.909,2.571,4,0Z"/><path class="c" d="M50.1,208.586l-.74.966c-1.425-1.029-3.628-2.86-4.944-3.92l-.288-.238a189.4,189.4,0,0,0,11.9-16.589c.123.085.2.132.2.132,1.4.9,4.173,2.88,5.408,3.862C59.573,196.146,53.635,203.958,50.1,208.586Z"/><path class="c" d="M80.193,201.107a18.821,18.821,0,0,0-7.91-4.07c-1.36-.28-2.75-.35-4.12-.56a30.023,30.023,0,0,1-7.31-2.25l-.114-.054c-2.415,3.593-7.016,9.665-10.145,13.759a46.69,46.69,0,0,1,4.549,3.705c1.74,1.56,3.48,3.11,5.22,4.67a25.56,25.56,0,0,0,4.69,3.33Z"/><path class="d" d="M59.844,195.954a40.253,40.253,0,0,0,5.069,1.86,37.918,37.918,0,0,0,5.5.938,16.6,16.6,0,0,1,8.364,3.769,2.061,2.061,0,0,0,2.828,0,2.014,2.014,0,0,0,0-2.829,20.957,20.957,0,0,0-9.164-4.655c-1.814-.332-3.656-.4-5.457-.821a31.013,31.013,0,0,1-5.123-1.716,2.068,2.068,0,0,0-2.737.717,2.015,2.015,0,0,0,.718,2.737Z"/><path class="d" d="M49.817,209.584a79.031,79.031,0,0,1,7.482,6.362c1.212,1.084,2.4,2.195,3.692,3.188a35.756,35.756,0,0,0,3.386,2.23A2,2,0,0,0,66.4,217.91c-.561-.339-1.125-.674-1.677-1.026-.253-.162-.5-.327-.751-.5-.14-.1-.279-.195-.416-.3-.035-.025-.261-.191-.109-.075-1.311-1-2.5-2.172-3.734-3.271a82.471,82.471,0,0,0-7.873-6.614,2.018,2.018,0,0,0-2.736.717,2.041,2.041,0,0,0,.717,2.737Z"/><path class="d" d="M55.212,190.664c.9.58,1.774,1.193,2.644,1.812.77.549,1.791,1.289,2.359,1.737l-.313-2.424c-3.629,5.866-8.086,11.284-12.274,16.753l2.736-.717c-1.561-1.139-3.036-2.393-4.539-3.607a2.058,2.058,0,0,0-2.828,0,2.013,2.013,0,0,0,0,2.828c1.768,1.428,3.511,2.892,5.348,4.233a2.046,2.046,0,0,0,2.737-.718c4.188-5.469,8.645-10.887,12.274-16.753a2.009,2.009,0,0,0-.313-2.423c-1.87-1.475-3.811-2.881-5.812-4.175-2.168-1.4-4.176,2.06-2.019,3.454Z"/><path class="d" d="M51.416,90.983c-8.1,2.743-16.114,5.742-23.971,9.13a41.865,41.865,0,0,0-8.892,4.612A18.473,18.473,0,0,0,12.92,112.1c-3.226,6.855-5.121,14.319-6.845,21.667-1.621,6.9-3.122,13.843-4.345,20.829-.608,3.478-1.16,6.977-1.483,10.495-.291,3.164-.53,6.591.539,9.646,1.742,4.976,6.535,8.343,10.42,11.6,5.252,4.4,10.644,8.616,16.1,12.759,3.845,2.919,8,6.5,12.2,9.347a7.246,7.246,0,0,0,2.064,1.115c1.313.346,2.121-.584,2.88-1.459,1.533-1.766,2.951-3.637,4.362-5.5a139.216,139.216,0,0,0,8.9-12.723,16.651,16.651,0,0,0,1.07-2.116,1.927,1.927,0,0,0-.514-1.945c-4.121-3.485-8.611-6.577-12.992-9.723q-4.674-3.357-9.182-6.938a46.84,46.84,0,0,1-5.3-4.513c-1.755-1.892-4.578.942-2.829,2.828a46.928,46.928,0,0,0,5.3,4.513Q37.8,175.6,42.493,179c4.348,3.149,8.845,6.18,12.948,9.649l-.515-1.946c.29-.693-.129.214-.22.381-.186.344-.386.68-.588,1.014-.492.813-1.01,1.609-1.536,2.4-1.371,2.063-2.8,4.087-4.256,6.092a79.8,79.8,0,0,1-7.576,9.644l1.946-.515c-.264-.06.441.3-.09-.045-.2-.131-.419-.248-.624-.38-.713-.458-1.4-.959-2.082-1.461-1.635-1.2-3.234-2.452-4.831-3.7-3.341-2.618-6.731-5.169-10.085-7.771q-6.461-5.013-12.694-10.318c-2.669-2.273-6.193-4.732-7.554-8.093a15.22,15.22,0,0,1-.664-6.514c.134-2.511.442-5.01.816-7.5.86-5.714,2.005-11.386,3.227-17.032,1.146-5.3,2.34-10.6,3.778-15.833,1.476-5.363,3.091-10.928,5.948-15.745,2.782-4.691,8.668-6.524,13.425-8.527,6.963-2.931,14.058-5.536,21.213-7.958,2.425-.821,1.384-4.686-1.063-3.857Z"/><path class="c" d="M78.805,197.154l-1.872.773a46.427,46.427,0,0,0-6.71,3.01c-4.18,2.69-6.93,5.5-10.46,9.27a18.119,18.119,0,0,0-4.34,6.88c-.616,1.86.4,4.264,2.282,3.916-.895,1.429-1.045,2.743-.2,3.8.722.9,3.444,1.221,5.255-.114l.419-.309-.314.285c-.7.634-.618,2.379-.618,2.379,1.174,2.2,4.182,2.382,7.183.063,0,0,.755-.584,1.674-1.317l-.091.453a3.071,3.071,0,0,0,3.846,3.75,10.775,10.775,0,0,0,4.638-2.438c4.186-3.427,5.334-4.565,8.918-7.977.953-.909,1.981-2.612,2.918-3.538,1.48-1.464,3.309-3.565,4.6-4.986,0,0,.2-.22.525-.576-3.416-4.9-8.585-12.7-10.709-16.194Z"/><path class="d" d="M57.6,219.14c-.949-.558.05-2.416.378-3.076a17.506,17.506,0,0,1,2.663-3.861,66.725,66.725,0,0,1,7.158-7.049,29.056,29.056,0,0,1,8.042-4.653c3.582-1.418,7.131-2.922,10.691-4.4a2.066,2.066,0,0,0,1.4-2.46,2.013,2.013,0,0,0-2.461-1.4c-4.036,1.671-8.086,3.308-12.125,4.973a33.64,33.64,0,0,0-9.865,6.4,47.641,47.641,0,0,0-7.993,8.752c-1.931,2.95-3.815,7.921.1,10.222,2.223,1.307,4.238-2.149,2.019-3.454Z"/><path class="d" d="M69.087,225.708a5.369,5.369,0,0,0,1.114,4.737,5.311,5.311,0,0,0,3.908,1.636c3.6-.043,6.549-2.86,9.111-5.03a84.817,84.817,0,0,0,6.852-6.3c1.238-1.31,2.237-2.814,3.489-4.122,1.3-1.355,2.53-2.769,3.788-4.159,1.723-1.905-1.1-4.743-2.829-2.829-1.995,2.207-4.192,4.315-5.995,6.679a44.333,44.333,0,0,1-5.64,5.725,37.727,37.727,0,0,1-6.447,5.222c-.98.549-3.847,1.668-3.494-.49a2.06,2.06,0,0,0-1.4-2.46,2.015,2.015,0,0,0-2.46,1.4Z"/><path class="d" d="M73.654,211.863c-3.706,3.323-7.287,6.792-10.922,10.192-.468.439-.98.855-1.408,1.334a4.931,4.931,0,0,0-1.057,3,3.406,3.406,0,0,0,.959,2.651,5.79,5.79,0,0,0,5.894,1.475,14.5,14.5,0,0,0,5.116-3.084c3.676-2.918,6.866-6.39,10.4-9.48A2,2,0,1,0,79.8,215.12c-2.9,2.539-5.534,5.381-8.449,7.9-.763.659-1.562,1.279-2.354,1.9-.268.212-.534.429-.809.634-.053.039-.1.083-.158.122.323-.234-.5.313-.48.3a4.224,4.224,0,0,1-2.519.782,1.323,1.323,0,0,1-1.057-.73l.273,1.009a2.11,2.11,0,0,1,0-.318c.009-.071.092-.723.029-.418.053-.259.259-.513,0-.228.027-.031.062-.055.091-.084.32-.324.669-.624,1-.935q1.937-1.81,3.871-3.623c2.406-2.252,4.783-4.543,7.238-6.744,1.92-1.722-.916-4.543-2.829-2.828Z"/><path class="d" d="M69.033,207.369c-2.948,2.387-5.733,5-8.441,7.648a36.1,36.1,0,0,0-4.4,4.638c-1.517,2.15-1.868,5.416.537,7.09,1.987,1.384,5.142.987,7.042-.332a2.054,2.054,0,0,0,.718-2.737,2.018,2.018,0,0,0-2.737-.717,2.864,2.864,0,0,1-1.276.571c-.141.024-.144.031-.009.018-.142.016-.285.026-.427.031-.083,0-.863-.053-.475.007-.182-.028-.355-.087-.533-.126q-.334-.119.021.021a2.137,2.137,0,0,1-.252-.149c.224.213.3.377.171.069a.83.83,0,0,1-.025-.278,4.687,4.687,0,0,1,1.4-2.147q1.164-1.244,2.377-2.44a121.839,121.839,0,0,1,9.141-8.338,2.014,2.014,0,0,0,0-2.829,2.049,2.049,0,0,0-2.829,0Z"/><path class="c" d="M86.137,194.91c-.343-.554-.632-1.032-.854-1.413,1.77-1.18,3.91-2.39,5.517-3.463,1.853,3.763,9.067,14.482,12.163,18.2-1.414.966-3.691,2.983-5.23,4.042C94.653,207.984,88.784,199.178,86.137,194.91Z"/><path class="d" d="M89.784,188.31c-1.81,1.2-3.7,2.265-5.51,3.46a2.039,2.039,0,0,0-.718,2.736c3.775,6.461,8.095,12.7,12.45,18.78a2.031,2.031,0,0,0,2.737.718c1.806-1.268,3.425-2.783,5.23-4.05a2.055,2.055,0,0,0,.717-2.737,2.017,2.017,0,0,0-2.736-.717c-1.806,1.268-3.424,2.783-5.23,4.05l2.736.717c-4.355-6.081-8.675-12.319-12.45-18.78l-.717,2.737c1.81-1.195,3.7-2.264,5.51-3.46,2.138-1.414.136-4.879-2.019-3.454Z"/><path class="d" d="M115.893,167.151a49.77,49.77,0,0,1-5.171,4.3q-4.23,3.328-8.547,6.544c-4.38,3.28-8.861,6.455-13.1,9.915a1.931,1.931,0,0,0-.514,1.946,33.682,33.682,0,0,0,2.9,5.309c1.535,2.47,3.144,4.894,4.794,7.289,1.492,2.166,3.018,4.312,4.645,6.38.547.7,1.184,1.712,2.029,2.052a3.217,3.217,0,0,0,2.738-.508,136.35,136.35,0,0,0,12.892-7.981,110.055,110.055,0,0,0,10.19-7.612,142.831,142.831,0,0,0,11.012-9.846c5.69-5.867,6.129-13.992,5.211-21.691-.849-7.126-2.37-14.187-3.828-21.208-1.649-7.943-3.328-15.9-5.658-23.674a46.477,46.477,0,0,0-3.547-9.5c-1.584-2.8-4.9-4.669-7.673-6.1a172.166,172.166,0,0,0-22.987-9.753c-1.489-.51-2.988-.994-4.5-1.441-2.473-.731-3.53,3.128-1.063,3.858a148.227,148.227,0,0,1,16.712,6.17c3.118,1.347,6.2,2.778,9.228,4.318,2.269,1.155,4.884,2.437,6.5,4.484,1.3,1.647,1.9,4.15,2.548,6.107,1.025,3.086,1.892,6.224,2.7,9.373,1.574,6.142,2.877,12.351,4.155,18.561,1.172,5.694,2.339,11.4,3.186,17.157.781,5.3,1.366,11.346-.95,16.365-1.726,3.742-5.191,6.493-8.23,9.157-3.137,2.751-6.314,5.47-9.585,8.061l-.4.314c-.377.295.269-.2-.048.036-.24.177-.48.354-.724.526-.71.5-1.43.988-2.151,1.473q-3.09,2.076-6.23,4.076c-2.007,1.283-4.023,2.553-6.069,3.774-.745.445-1.493.886-2.257,1.3-.279.15-.57.281-.847.434-.315.175.421-.035.135-.053a1.248,1.248,0,0,0-.228.068l1.946.514a69.273,69.273,0,0,1-6.837-9.314c-1.291-1.923-2.558-3.864-3.767-5.84-.467-.764-.928-1.533-1.364-2.316-.171-.306-.339-.614-.5-.927-.076-.15-.148-.3-.223-.453-.226-.455.121.318,0,0l-.514,1.946c4.192-3.42,8.636-6.54,12.961-9.79q4.377-3.289,8.688-6.669a49.54,49.54,0,0,0,5.171-4.3c1.787-1.854-1.038-4.686-2.828-2.828Z"/><path class="d" d="M73.5,65.838a18.255,18.255,0,0,1,.667,2.579l-.071-.531a1.323,1.323,0,0,1,.009.3l.071-.532a.788.788,0,0,1-.038.154l.2-.477a.625.625,0,0,1-.057.1l.313-.405a.576.576,0,0,1-.086.085l.405-.313a1.249,1.249,0,0,1-.193.1l.477-.2a2.035,2.035,0,0,1-.467.129l.532-.072a1.916,1.916,0,0,1-.454,0l.532.071c-.3-.041-.6-.093-.9-.127a1.517,1.517,0,0,0-.771.173,1.489,1.489,0,0,0-.643.413,2,2,0,0,0,0,2.829l.4.312a1.991,1.991,0,0,0,1.01.273l.063.008-.531-.071A9.925,9.925,0,0,0,75,70.759a3.248,3.248,0,0,0,1.2-.189,2.959,2.959,0,0,0,1.165-.661,2.513,2.513,0,0,0,.624-1.042,3.132,3.132,0,0,0,.015-1.6,21.75,21.75,0,0,0-.653-2.5,2.1,2.1,0,0,0-.919-1.2A2,2,0,0,0,73.5,65.838Z"/><path class="d" d="M83.29,60.717a5.942,5.942,0,0,0,8.122,0,2,2,0,1,0-2.829-2.828,3.742,3.742,0,0,1-.321.282l.4-.313a3.668,3.668,0,0,1-.771.444l.478-.2a4.08,4.08,0,0,1-.933.254l.532-.072a4.733,4.733,0,0,1-1.247,0l.532.072a4.072,4.072,0,0,1-.932-.254l.477.2a3.672,3.672,0,0,1-.768-.444l.4.312a3.434,3.434,0,0,1-.321-.281,2,2,0,0,0-2.828,2.828Z"/><path class="d" d="M62.811,57.889a3.834,3.834,0,0,1-.317.281l.405-.312a3.562,3.562,0,0,1-.756.444l.478-.2a3.994,3.994,0,0,1-.924.254l.532-.072a4.683,4.683,0,0,1-1.246,0l.531.072a4.221,4.221,0,0,1-.942-.254l.478.2a3.81,3.81,0,0,1-.819-.471l.405.312a3.047,3.047,0,0,1-.29-.254,2,2,0,1,0-2.829,2.828,5.942,5.942,0,0,0,8.122,0,2,2,0,0,0-2.828-2.828Z"/><path class="d" d="M79.086,76.525a15.017,15.017,0,0,0-9.547,0A2,2,0,1,0,70.6,80.382a14.126,14.126,0,0,1,2.216-.568c.224-.033.188-.028-.11.014.094-.011.187-.021.281-.03.14-.014.281-.025.422-.035.372-.025.745-.04,1.118-.036.388,0,.772.035,1.157.074.5.051-.44-.083.046.009.183.034.366.064.548.1a17.149,17.149,0,0,1,1.742.47,2.018,2.018,0,0,0,2.461-1.4,2.045,2.045,0,0,0-1.4-2.46Z"/></svg>